<svg xmlns="http://www.w3.org/2000/svg" xmlns:xlink="http://www.w3.org/1999/xlink" width="1126" zoomAndPan="magnify" viewBox="0 0 844.5 243.75" height="325" preserveAspectRatio="xMidYMid meet" version="1.0"><defs><g/><clipPath id="b5fa54f2de"><path d="M 0.183594 120 L 11 120 L 11 156 L 0.183594 156 Z M 0.183594 120 " clip-rule="nonzero"/></clipPath><clipPath id="5c19039e24"><path d="M 71.035156 28 L 77 28 L 77 33 L 71.035156 33 Z M 71.035156 28 " clip-rule="nonzero"/></clipPath><clipPath id="91ed1955ca"><path d="M 165 57 L 170 57 L 170 62.96875 L 165 62.96875 Z M 165 57 " clip-rule="nonzero"/></clipPath><clipPath id="bb3acf8023"><path d="M 154.085938 63 L 160 63 L 160 68 L 154.085938 68 Z M 154.085938 63 " clip-rule="nonzero"/></clipPath><clipPath id="7ea354eceb"><path d="M 181 85 L 186 85 L 186 90.980469 L 181 90.980469 Z M 181 85 " clip-rule="nonzero"/></clipPath><clipPath id="55a856e683"><path d="M 154.085938 186 L 160 186 L 160 191 L 154.085938 191 Z M 154.085938 186 " clip-rule="nonzero"/></clipPath><clipPath id="9fc4b4a9ed"><path d="M 0.183594 120 L 19 120 L 19 151 L 0.183594 151 Z M 0.183594 120 " clip-rule="nonzero"/></clipPath><clipPath id="a930e3c729"><path d="M 0.183594 67 L 19 67 L 19 104 L 0.183594 104 Z M 0.183594 67 " clip-rule="nonzero"/></clipPath><clipPath id="8ebc300e67"><path d="M 0.183594 94 L 10 94 L 10 129 L 0.183594 129 Z M 0.183594 94 " clip-rule="nonzero"/></clipPath><clipPath id="30a072a084"><path d="M 25 46.054688 L 30 46.054688 L 30 52 L 25 52 Z M 25 46.054688 " clip-rule="nonzero"/></clipPath><clipPath id="61e47f718c"><path d="M 4 149 L 9.929688 149 L 9.929688 154 L 4 154 Z M 4 149 " clip-rule="nonzero"/></clipPath></defs><path stroke-linecap="butt" transform="matrix(0.72065, -0.204965, 0.204965, 0.72065, 45.439464, 38.321359)" fill="none" stroke-linejoin="miter" d="M 0.000615129 0.502825 L 38.838359 0.502056 " stroke="#4b8f8c" stroke-width="1" stroke-opacity="1" stroke-miterlimit="4"/><path stroke-linecap="butt" transform="matrix(0.749218, 0.00452847, -0.00452847, 0.749218, 73.725877, 30.191394)" fill="none" stroke-linejoin="miter" d="M -0.00127278 0.500547 L 34.493033 0.500605 " stroke="#4b8f8c" stroke-width="1" stroke-opacity="1" stroke-miterlimit="4"/><path stroke-linecap="butt" transform="matrix(0.745072, 0.0788393, -0.0788393, 0.745072, 99.606462, 30.193473)" fill="none" stroke-linejoin="miter" d="M -0.000789132 0.500616 L 47.514547 0.50064 " stroke="#4b8f8c" stroke-width="1" stroke-opacity="1" stroke-miterlimit="4"/><path stroke-linecap="butt" transform="matrix(0.431608, 0.612423, -0.612423, 0.431608, 135.31575, 34.472987)" fill="none" stroke-linejoin="miter" d="M -0.00273541 0.500891 L 50.264525 0.50163 " stroke="#4b8f8c" stroke-width="1" stroke-opacity="1" stroke-miterlimit="4"/><path stroke-linecap="butt" transform="matrix(0.119389, 0.739658, -0.739658, 0.119389, 183.96887, 87.920536)" fill="none" stroke-linejoin="miter" d="M 0.0000192834 0.501875 L 43.865567 0.500233 " stroke="#4b8f8c" stroke-width="1" stroke-opacity="1" stroke-miterlimit="4"/><path stroke-linecap="butt" transform="matrix(-0.535799, 0.523706, -0.523706, -0.535799, 189.098869, 120.476154)" fill="none" stroke-linejoin="miter" d="M -0.000111512 0.502174 L 73.796171 0.500463 " stroke="#4b8f8c" stroke-width="1" stroke-opacity="1" stroke-miterlimit="4"/><path stroke-linecap="butt" transform="matrix(-0.163597, 0.731152, -0.731152, -0.163597, 189.199647, 120.508691)" fill="none" stroke-linejoin="miter" d="M -0.00199098 0.497893 L 59.242945 0.501991 " stroke="#4b8f8c" stroke-width="1" stroke-opacity="1" stroke-miterlimit="4"/><path stroke-linecap="butt" transform="matrix(-0.730652, -0.165816, 0.165816, -0.730652, 84.338543, 212.113103)" fill="none" stroke-linejoin="miter" d="M -0.0000540475 0.502316 L 44.896754 0.497915 " stroke="#4b8f8c" stroke-width="1" stroke-opacity="1" stroke-miterlimit="4"/><path stroke-linecap="butt" transform="matrix(-0.400305, 0.633327, -0.633327, -0.400305, 28.717439, 49.931287)" fill="none" stroke-linejoin="miter" d="M -0.00187021 0.498705 L 34.218017 0.499993 " stroke="#4b8f8c" stroke-width="1" stroke-opacity="1" stroke-miterlimit="4"/><path stroke-linecap="butt" transform="matrix(0.130459, -0.737786, 0.737786, 0.130459, 4.903772, 124.647376)" fill="none" stroke-linejoin="miter" d="M 0.00237203 0.500627 L 72.262197 0.499064 " stroke="#4b8f8c" stroke-width="1" stroke-opacity="1" stroke-miterlimit="4"/><g clip-path="url(#b5fa54f2de)"><path stroke-linecap="butt" transform="matrix(-0.0373637, -0.748299, 0.748299, -0.0373637, 6.174197, 151.749538)" fill="none" stroke-linejoin="miter" d="M 0.000614439 0.498064 L 36.108438 0.500025 " stroke="#4b8f8c" stroke-width="1" stroke-opacity="1" stroke-miterlimit="4"/></g><path stroke-linecap="butt" transform="matrix(-0.348906, -0.663033, 0.663033, -0.348906, 24.328215, 185.63406)" fill="none" stroke-linejoin="miter" d="M -0.0018353 0.499675 L 50.840878 0.501227 " stroke="#4b8f8c" stroke-width="1" stroke-opacity="1" stroke-miterlimit="4"/><path stroke-linecap="butt" transform="matrix(-0.42064, 0.620008, -0.620008, -0.42064, 32.810983, 120.419083)" fill="none" stroke-linejoin="miter" d="M -0.00117957 0.502378 L 42.314862 0.497661 " stroke="#4b8f8c" stroke-width="1" stroke-opacity="1" stroke-miterlimit="4"/><path stroke-linecap="butt" transform="matrix(-0.629751, 0.405908, -0.405908, -0.629751, 45.735292, 39.000518)" fill="none" stroke-linejoin="miter" d="M 0.00256362 0.498703 L 27.219812 0.499995 " stroke="#4b8f8c" stroke-width="1" stroke-opacity="1" stroke-miterlimit="4"/><path fill="#4b8f8c" d="M 48.464844 36.40625 C 48.824219 36.765625 49.097656 37.175781 49.289062 37.640625 C 49.484375 38.109375 49.582031 38.59375 49.582031 39.097656 C 49.582031 39.605469 49.484375 40.089844 49.289062 40.554688 C 49.097656 41.023438 48.824219 41.433594 48.464844 41.792969 C 48.109375 42.148438 47.695312 42.421875 47.230469 42.617188 C 46.765625 42.808594 46.277344 42.90625 45.773438 42.90625 C 45.269531 42.90625 44.78125 42.808594 44.316406 42.617188 C 43.851562 42.421875 43.4375 42.148438 43.082031 41.792969 C 42.722656 41.433594 42.449219 41.023438 42.253906 40.554688 C 42.0625 40.089844 41.964844 39.605469 41.964844 39.097656 C 41.964844 38.59375 42.0625 38.109375 42.253906 37.640625 C 42.449219 37.175781 42.722656 36.765625 43.082031 36.40625 C 43.4375 36.050781 43.847656 35.773438 44.316406 35.582031 C 44.78125 35.386719 45.269531 35.292969 45.773438 35.292969 C 46.277344 35.292969 46.761719 35.386719 47.230469 35.582031 C 47.695312 35.773438 48.109375 36.050781 48.464844 36.40625 Z M 48.464844 36.40625 " fill-opacity="1" fill-rule="nonzero"/><path stroke-linecap="butt" transform="matrix(0.137342, 0.736536, -0.736536, 0.137342, 99.931413, 30.658209)" fill="none" stroke-linejoin="miter" d="M -0.000574569 0.500769 L 43.058942 0.500514 " stroke="#4b8f8c" stroke-width="1" stroke-opacity="1" stroke-miterlimit="4"/><path stroke-linecap="butt" transform="matrix(0.545969, -0.513094, 0.513094, 0.545969, 105.223285, 62.161386)" fill="none" stroke-linejoin="miter" d="M 0.00132927 0.499827 L 54.08813 0.502811 " stroke="#4b8f8c" stroke-width="1" stroke-opacity="1" stroke-miterlimit="4"/><path stroke-linecap="butt" transform="matrix(-0.74068, -0.112875, 0.112875, -0.74068, 179.083003, 164.109401)" fill="none" stroke-linejoin="miter" d="M -0.00140611 0.501267 L 40.601889 0.49982 " stroke="#4b8f8c" stroke-width="1" stroke-opacity="1" stroke-miterlimit="4"/><path stroke-linecap="butt" transform="matrix(-0.0893299, 0.743887, -0.743887, -0.0893299, 32.873029, 120.254005)" fill="none" stroke-linejoin="miter" d="M 0.00228964 0.501184 L 87.722447 0.501057 " stroke="#4b8f8c" stroke-width="1" stroke-opacity="1" stroke-miterlimit="4"/><path stroke-linecap="butt" transform="matrix(-0.614103, -0.429215, 0.429215, -0.614103, 51.405073, 204.610061)" fill="none" stroke-linejoin="miter" d="M -0.00282853 0.499245 L 43.892829 0.497881 " stroke="#4b8f8c" stroke-width="1" stroke-opacity="1" stroke-miterlimit="4"/><path stroke-linecap="butt" transform="matrix(0.617165, 0.4248, -0.4248, 0.617165, 32.714669, 120.116844)" fill="none" stroke-linejoin="miter" d="M 0.00206842 0.499151 L 108.664585 0.499645 " stroke="#4b8f8c" stroke-width="1" stroke-opacity="1" stroke-miterlimit="4"/><path stroke-linecap="butt" transform="matrix(0.315171, 0.679717, -0.679717, 0.315171, 71.363045, 105.473839)" fill="none" stroke-linejoin="miter" d="M 0.00182164 0.500475 L 90.557119 0.496679 " stroke="#4b8f8c" stroke-width="1" stroke-opacity="1" stroke-miterlimit="4"/><path stroke-linecap="butt" transform="matrix(0.685614, 0.302128, -0.302128, 0.685614, 24.817204, 185.122945)" fill="none" stroke-linejoin="miter" d="M 0.00174509 0.497906 L 86.99701 0.500013 " stroke="#4b8f8c" stroke-width="1" stroke-opacity="1" stroke-miterlimit="4"/><path stroke-linecap="butt" transform="matrix(-0.255704, 0.704247, -0.704247, -0.255704, 99.916369, 166.714267)" fill="none" stroke-linejoin="miter" d="M 0.000196618 0.502407 L 64.131173 0.502232 " stroke="#4b8f8c" stroke-width="1" stroke-opacity="1" stroke-miterlimit="4"/><path stroke-linecap="butt" transform="matrix(0.744462, -0.0844014, 0.0844014, 0.744462, 84.382941, 211.375929)" fill="none" stroke-linejoin="miter" d="M 0.000571622 0.502536 L 49.795369 0.502032 " stroke="#4b8f8c" stroke-width="1" stroke-opacity="1" stroke-miterlimit="4"/><path stroke-linecap="butt" transform="matrix(0.587582, 0.46486, -0.46486, 0.587582, 134.897938, 33.002013)" fill="none" stroke-linejoin="miter" d="M -0.000626124 0.502319 L 57.377231 0.500979 " stroke="#4b8f8c" stroke-width="1" stroke-opacity="1" stroke-miterlimit="4"/><path stroke-linecap="butt" transform="matrix(0.357723, 0.658317, -0.658317, 0.357723, 168.709966, 59.789431)" fill="none" stroke-linejoin="miter" d="M -0.000675316 0.50252 L 42.546083 0.498442 " stroke="#4b8f8c" stroke-width="1" stroke-opacity="1" stroke-miterlimit="4"/><path stroke-linecap="butt" transform="matrix(0.674595, -0.325991, 0.325991, 0.674595, 156.915817, 65.091782)" fill="none" stroke-linejoin="miter" d="M -0.00117933 0.500331 L 16.750753 0.500392 " stroke="#4b8f8c" stroke-width="1" stroke-opacity="1" stroke-miterlimit="4"/><path fill="#4b8f8c" d="M 136.527344 112.765625 C 136.789062 113.027344 137.023438 113.308594 137.226562 113.617188 C 137.433594 113.925781 137.605469 114.25 137.75 114.589844 C 137.890625 114.933594 137.996094 115.285156 138.070312 115.648438 C 138.140625 116.011719 138.175781 116.378906 138.175781 116.746094 C 138.175781 117.117188 138.140625 117.484375 138.070312 117.847656 C 137.996094 118.207031 137.890625 118.5625 137.75 118.902344 C 137.605469 119.246094 137.433594 119.570312 137.226562 119.875 C 137.023438 120.183594 136.789062 120.46875 136.527344 120.730469 C 136.265625 120.992188 135.980469 121.226562 135.675781 121.429688 C 135.367188 121.636719 135.042969 121.808594 134.699219 121.949219 C 134.359375 122.09375 134.007812 122.199219 133.644531 122.273438 C 133.28125 122.34375 132.914062 122.378906 132.542969 122.378906 C 132.175781 122.378906 131.808594 122.34375 131.445312 122.273438 C 131.082031 122.199219 130.730469 122.09375 130.390625 121.949219 C 130.046875 121.808594 129.722656 121.636719 129.414062 121.429688 C 129.109375 121.226562 128.824219 120.992188 128.5625 120.730469 C 128.300781 120.46875 128.066406 120.183594 127.863281 119.875 C 127.65625 119.570312 127.484375 119.246094 127.339844 118.902344 C 127.199219 118.5625 127.09375 118.207031 127.019531 117.847656 C 126.949219 117.484375 126.914062 117.117188 126.914062 116.746094 C 126.914062 116.378906 126.949219 116.011719 127.019531 115.648438 C 127.09375 115.285156 127.199219 114.933594 127.339844 114.589844 C 127.480469 114.25 127.65625 113.925781 127.863281 113.617188 C 128.066406 113.308594 128.300781 113.027344 128.5625 112.765625 C 128.824219 112.503906 129.109375 112.269531 129.414062 112.0625 C 129.722656 111.859375 130.046875 111.683594 130.390625 111.542969 C 130.730469 111.402344 131.082031 111.296875 131.445312 111.222656 C 131.808594 111.152344 132.175781 111.113281 132.542969 111.113281 C 132.914062 111.113281 133.28125 111.152344 133.644531 111.222656 C 134.007812 111.296875 134.359375 111.402344 134.699219 111.542969 C 135.042969 111.683594 135.367188 111.859375 135.675781 112.0625 C 135.980469 112.269531 136.265625 112.503906 136.527344 112.765625 Z M 136.527344 112.765625 " fill-opacity="1" fill-rule="nonzero"/><path fill="#4b8f8c" d="M 125.476562 203.1875 C 125.738281 203.449219 125.972656 203.734375 126.179688 204.042969 C 126.382812 204.347656 126.558594 204.671875 126.699219 205.015625 C 126.839844 205.355469 126.949219 205.710938 127.019531 206.070312 C 127.089844 206.433594 127.128906 206.800781 127.128906 207.171875 C 127.128906 207.539062 127.089844 207.90625 127.019531 208.269531 C 126.949219 208.632812 126.839844 208.984375 126.699219 209.328125 C 126.558594 209.667969 126.382812 209.992188 126.179688 210.300781 C 125.972656 210.609375 125.738281 210.890625 125.476562 211.152344 C 125.214844 211.414062 124.933594 211.648438 124.625 211.855469 C 124.316406 212.058594 123.992188 212.234375 123.652344 212.375 C 123.308594 212.515625 122.957031 212.625 122.59375 212.695312 C 122.230469 212.765625 121.863281 212.804688 121.496094 212.804688 C 121.125 212.804688 120.757812 212.765625 120.394531 212.695312 C 120.035156 212.625 119.679688 212.515625 119.339844 212.375 C 119 212.234375 118.671875 212.058594 118.367188 211.855469 C 118.058594 211.648438 117.773438 211.414062 117.511719 211.152344 C 117.25 210.890625 117.015625 210.609375 116.8125 210.300781 C 116.605469 209.992188 116.433594 209.667969 116.292969 209.328125 C 116.148438 208.984375 116.042969 208.632812 115.972656 208.269531 C 115.898438 207.90625 115.863281 207.539062 115.863281 207.171875 C 115.863281 206.800781 115.898438 206.433594 115.972656 206.074219 C 116.042969 205.710938 116.148438 205.355469 116.292969 205.015625 C 116.433594 204.675781 116.605469 204.347656 116.8125 204.042969 C 117.015625 203.734375 117.25 203.449219 117.511719 203.1875 C 117.773438 202.925781 118.058594 202.691406 118.367188 202.488281 C 118.671875 202.28125 118.996094 202.109375 119.339844 201.96875 C 119.679688 201.824219 120.035156 201.71875 120.394531 201.648438 C 120.757812 201.574219 121.125 201.539062 121.496094 201.539062 C 121.863281 201.539062 122.230469 201.574219 122.59375 201.648438 C 122.957031 201.71875 123.308594 201.824219 123.652344 201.96875 C 123.992188 202.109375 124.316406 202.28125 124.625 202.488281 C 124.933594 202.691406 125.214844 202.925781 125.476562 203.1875 Z M 125.476562 203.1875 " fill-opacity="1" fill-rule="nonzero"/><path fill="#4b8f8c" d="M 107.046875 60.34375 C 107.242188 60.542969 107.398438 60.769531 107.503906 61.027344 C 107.613281 61.289062 107.664062 61.558594 107.664062 61.839844 C 107.664062 62.117188 107.613281 62.386719 107.503906 62.648438 C 107.398438 62.90625 107.242188 63.136719 107.046875 63.332031 C 106.847656 63.53125 106.617188 63.683594 106.359375 63.792969 C 106.101562 63.898438 105.832031 63.953125 105.550781 63.953125 C 105.269531 63.953125 105 63.898438 104.742188 63.792969 C 104.480469 63.683594 104.253906 63.53125 104.054688 63.332031 C 103.855469 63.136719 103.703125 62.90625 103.597656 62.648438 C 103.488281 62.386719 103.433594 62.117188 103.433594 61.839844 C 103.433594 61.558594 103.488281 61.289062 103.597656 61.027344 C 103.703125 60.769531 103.855469 60.542969 104.054688 60.34375 C 104.253906 60.144531 104.480469 59.992188 104.742188 59.882812 C 105 59.777344 105.269531 59.722656 105.550781 59.722656 C 105.832031 59.722656 106.101562 59.777344 106.359375 59.882812 C 106.617188 59.992188 106.847656 60.144531 107.046875 60.34375 Z M 107.046875 60.34375 " fill-opacity="1" fill-rule="nonzero"/><path fill="#4b8f8c" d="M 101.058594 29.226562 C 101.257812 29.421875 101.410156 29.652344 101.519531 29.910156 C 101.625 30.171875 101.679688 30.441406 101.679688 30.71875 C 101.679688 31 101.625 31.269531 101.519531 31.53125 C 101.410156 31.789062 101.257812 32.015625 101.0625 32.214844 C 100.863281 32.414062 100.632812 32.566406 100.375 32.675781 C 100.117188 32.78125 99.84375 32.835938 99.566406 32.835938 C 99.285156 32.835938 99.015625 32.78125 98.757812 32.675781 C 98.496094 32.566406 98.269531 32.414062 98.070312 32.214844 C 97.871094 32.015625 97.71875 31.789062 97.609375 31.53125 C 97.503906 31.269531 97.449219 31 97.449219 30.71875 C 97.449219 30.441406 97.503906 30.171875 97.609375 29.910156 C 97.71875 29.652344 97.871094 29.421875 98.070312 29.226562 C 98.269531 29.027344 98.496094 28.875 98.753906 28.765625 C 99.015625 28.660156 99.285156 28.605469 99.566406 28.605469 C 99.84375 28.605469 100.117188 28.660156 100.375 28.765625 C 100.632812 28.875 100.863281 29.027344 101.058594 29.226562 Z M 101.058594 29.226562 " fill-opacity="1" fill-rule="nonzero"/><g clip-path="url(#5c19039e24)"><path fill="#4b8f8c" d="M 75.636719 29.183594 C 75.839844 29.386719 75.996094 29.621094 76.105469 29.886719 C 76.214844 30.152344 76.269531 30.429688 76.269531 30.71875 C 76.269531 31.003906 76.214844 31.28125 76.105469 31.546875 C 75.996094 31.8125 75.839844 32.046875 75.636719 32.25 C 75.433594 32.453125 75.199219 32.609375 74.933594 32.722656 C 74.667969 32.832031 74.390625 32.886719 74.101562 32.886719 C 73.816406 32.886719 73.539062 32.832031 73.273438 32.722656 C 73.007812 32.609375 72.773438 32.453125 72.570312 32.25 C 72.367188 32.046875 72.207031 31.8125 72.097656 31.546875 C 71.988281 31.28125 71.933594 31.003906 71.933594 30.71875 C 71.933594 30.429688 71.988281 30.152344 72.097656 29.886719 C 72.207031 29.621094 72.367188 29.386719 72.570312 29.183594 C 72.773438 28.980469 73.007812 28.824219 73.273438 28.714844 C 73.539062 28.605469 73.816406 28.546875 74.101562 28.546875 C 74.390625 28.546875 74.667969 28.605469 74.933594 28.714844 C 75.199219 28.824219 75.433594 28.980469 75.636719 29.183594 Z M 75.636719 29.183594 " fill-opacity="1" fill-rule="nonzero"/></g><path fill="#4b8f8c" d="M 137.148438 33.144531 C 137.351562 33.347656 137.507812 33.582031 137.617188 33.847656 C 137.726562 34.117188 137.78125 34.390625 137.78125 34.679688 C 137.78125 34.96875 137.726562 35.242188 137.617188 35.507812 C 137.507812 35.773438 137.351562 36.007812 137.148438 36.214844 C 136.945312 36.417969 136.710938 36.574219 136.445312 36.683594 C 136.179688 36.792969 135.902344 36.847656 135.613281 36.847656 C 135.328125 36.847656 135.050781 36.792969 134.785156 36.683594 C 134.519531 36.574219 134.285156 36.417969 134.082031 36.214844 C 133.878906 36.007812 133.71875 35.773438 133.609375 35.507812 C 133.5 35.242188 133.445312 34.96875 133.445312 34.679688 C 133.445312 34.390625 133.5 34.117188 133.609375 33.851562 C 133.71875 33.582031 133.878906 33.347656 134.082031 33.144531 C 134.285156 32.941406 134.519531 32.785156 134.785156 32.675781 C 135.050781 32.566406 135.324219 32.511719 135.613281 32.511719 C 135.902344 32.511719 136.179688 32.566406 136.445312 32.675781 C 136.710938 32.785156 136.945312 32.941406 137.148438 33.144531 Z M 137.148438 33.144531 " fill-opacity="1" fill-rule="nonzero"/><g clip-path="url(#91ed1955ca)"><path fill="#4b8f8c" d="M 169 58.472656 C 169.199219 58.667969 169.351562 58.898438 169.457031 59.15625 C 169.566406 59.417969 169.617188 59.6875 169.617188 59.964844 C 169.617188 60.246094 169.566406 60.515625 169.457031 60.777344 C 169.351562 61.035156 169.199219 61.261719 169 61.460938 C 168.800781 61.660156 168.570312 61.8125 168.3125 61.921875 C 168.054688 62.027344 167.785156 62.082031 167.503906 62.082031 C 167.222656 62.082031 166.953125 62.027344 166.695312 61.921875 C 166.433594 61.8125 166.207031 61.660156 166.007812 61.460938 C 165.808594 61.261719 165.65625 61.035156 165.550781 60.777344 C 165.441406 60.515625 165.390625 60.246094 165.390625 59.964844 C 165.390625 59.6875 165.441406 59.417969 165.550781 59.15625 C 165.65625 58.898438 165.808594 58.667969 166.007812 58.472656 C 166.207031 58.273438 166.433594 58.121094 166.695312 58.011719 C 166.953125 57.90625 167.222656 57.851562 167.503906 57.851562 C 167.785156 57.851562 168.054688 57.90625 168.3125 58.011719 C 168.570312 58.121094 168.800781 58.273438 169 58.472656 Z M 169 58.472656 " fill-opacity="1" fill-rule="nonzero"/></g><g clip-path="url(#bb3acf8023)"><path fill="#4b8f8c" d="M 158.574219 63.96875 C 158.769531 64.167969 158.921875 64.398438 159.03125 64.65625 C 159.136719 64.914062 159.191406 65.183594 159.191406 65.464844 C 159.191406 65.746094 159.136719 66.015625 159.03125 66.273438 C 158.921875 66.535156 158.769531 66.761719 158.574219 66.960938 C 158.375 67.160156 158.144531 67.3125 157.886719 67.417969 C 157.628906 67.527344 157.359375 67.582031 157.078125 67.582031 C 156.796875 67.582031 156.527344 67.527344 156.269531 67.417969 C 156.007812 67.3125 155.78125 67.160156 155.582031 66.960938 C 155.382812 66.761719 155.230469 66.535156 155.125 66.273438 C 155.015625 66.015625 154.960938 65.746094 154.960938 65.464844 C 154.960938 65.183594 155.015625 64.914062 155.125 64.65625 C 155.230469 64.398438 155.382812 64.167969 155.582031 63.96875 C 155.78125 63.773438 156.007812 63.621094 156.269531 63.511719 C 156.527344 63.40625 156.796875 63.351562 157.078125 63.351562 C 157.359375 63.351562 157.628906 63.40625 157.886719 63.511719 C 158.144531 63.617188 158.375 63.773438 158.574219 63.96875 Z M 158.574219 63.96875 " fill-opacity="1" fill-rule="nonzero"/></g><g clip-path="url(#7ea354eceb)"><path fill="#4b8f8c" d="M 185.09375 86.480469 C 185.292969 86.679688 185.445312 86.90625 185.554688 87.167969 C 185.660156 87.425781 185.714844 87.695312 185.714844 87.976562 C 185.714844 88.257812 185.660156 88.527344 185.554688 88.785156 C 185.445312 89.042969 185.292969 89.273438 185.09375 89.472656 C 184.894531 89.667969 184.667969 89.824219 184.410156 89.929688 C 184.148438 90.039062 183.878906 90.089844 183.597656 90.089844 C 183.320312 90.089844 183.050781 90.039062 182.789062 89.929688 C 182.53125 89.824219 182.300781 89.667969 182.105469 89.472656 C 181.90625 89.273438 181.753906 89.042969 181.644531 88.785156 C 181.539062 88.527344 181.484375 88.257812 181.484375 87.976562 C 181.484375 87.695312 181.539062 87.425781 181.644531 87.167969 C 181.753906 86.90625 181.90625 86.679688 182.105469 86.480469 C 182.300781 86.28125 182.53125 86.128906 182.789062 86.023438 C 183.050781 85.914062 183.320312 85.859375 183.597656 85.859375 C 183.878906 85.859375 184.148438 85.914062 184.410156 86.023438 C 184.667969 86.128906 184.894531 86.28125 185.09375 86.480469 Z M 185.09375 86.480469 " fill-opacity="1" fill-rule="nonzero"/></g><path fill="#4b8f8c" d="M 57.664062 65.128906 C 58.023438 65.488281 58.296875 65.898438 58.488281 66.363281 C 58.683594 66.832031 58.78125 67.316406 58.78125 67.820312 C 58.78125 68.328125 58.683594 68.8125 58.488281 69.277344 C 58.296875 69.746094 58.023438 70.15625 57.664062 70.515625 C 57.308594 70.871094 56.894531 71.144531 56.429688 71.339844 C 55.964844 71.53125 55.476562 71.628906 54.972656 71.628906 C 54.46875 71.628906 53.980469 71.53125 53.515625 71.339844 C 53.046875 71.144531 52.636719 70.871094 52.28125 70.515625 C 51.921875 70.15625 51.648438 69.746094 51.453125 69.277344 C 51.261719 68.8125 51.164062 68.328125 51.164062 67.820312 C 51.164062 67.316406 51.261719 66.832031 51.453125 66.363281 C 51.648438 65.898438 51.921875 65.488281 52.28125 65.128906 C 52.636719 64.773438 53.046875 64.496094 53.515625 64.304688 C 53.980469 64.109375 54.46875 64.015625 54.972656 64.015625 C 55.476562 64.015625 55.960938 64.109375 56.429688 64.304688 C 56.894531 64.496094 57.308594 64.773438 57.664062 65.128906 Z M 57.664062 65.128906 " fill-opacity="1" fill-rule="nonzero"/><path fill="#4b8f8c" d="M 102.253906 163.890625 C 102.613281 164.246094 102.886719 164.65625 103.082031 165.125 C 103.273438 165.589844 103.371094 166.074219 103.371094 166.582031 C 103.371094 167.085938 103.273438 167.570312 103.082031 168.039062 C 102.886719 168.503906 102.613281 168.917969 102.253906 169.273438 C 101.898438 169.628906 101.488281 169.90625 101.019531 170.097656 C 100.554688 170.292969 100.070312 170.386719 99.5625 170.386719 C 99.058594 170.386719 98.574219 170.292969 98.105469 170.097656 C 97.640625 169.90625 97.226562 169.628906 96.871094 169.273438 C 96.515625 168.917969 96.238281 168.503906 96.046875 168.039062 C 95.851562 167.570312 95.757812 167.085938 95.757812 166.582031 C 95.757812 166.078125 95.851562 165.589844 96.046875 165.125 C 96.238281 164.65625 96.515625 164.246094 96.871094 163.890625 C 97.226562 163.53125 97.640625 163.257812 98.105469 163.0625 C 98.574219 162.871094 99.058594 162.773438 99.5625 162.773438 C 100.066406 162.773438 100.554688 162.871094 101.019531 163.0625 C 101.488281 163.257812 101.898438 163.53125 102.253906 163.890625 Z M 102.253906 163.890625 " fill-opacity="1" fill-rule="nonzero"/><path fill="#4b8f8c" d="M 190.332031 118.710938 C 190.53125 118.910156 190.683594 119.136719 190.789062 119.398438 C 190.898438 119.65625 190.949219 119.925781 190.949219 120.207031 C 190.949219 120.488281 190.898438 120.757812 190.789062 121.015625 C 190.683594 121.273438 190.53125 121.503906 190.332031 121.703125 C 190.132812 121.898438 189.90625 122.050781 189.644531 122.160156 C 189.386719 122.265625 189.117188 122.320312 188.835938 122.320312 C 188.554688 122.320312 188.285156 122.265625 188.027344 122.160156 C 187.769531 122.050781 187.539062 121.898438 187.339844 121.703125 C 187.144531 121.503906 186.988281 121.273438 186.882812 121.015625 C 186.773438 120.757812 186.722656 120.488281 186.722656 120.207031 C 186.722656 119.925781 186.773438 119.65625 186.882812 119.398438 C 186.988281 119.136719 187.144531 118.910156 187.339844 118.710938 C 187.539062 118.511719 187.769531 118.359375 188.027344 118.253906 C 188.285156 118.144531 188.554688 118.089844 188.835938 118.089844 C 189.117188 118.089844 189.386719 118.144531 189.644531 118.253906 C 189.90625 118.359375 190.132812 118.511719 190.332031 118.710938 Z M 190.332031 118.710938 " fill-opacity="1" fill-rule="nonzero"/><path fill="#4b8f8c" d="M 180.640625 162.691406 C 180.839844 162.890625 180.992188 163.117188 181.097656 163.378906 C 181.207031 163.636719 181.257812 163.90625 181.257812 164.1875 C 181.257812 164.46875 181.207031 164.738281 181.097656 164.996094 C 180.992188 165.253906 180.839844 165.484375 180.640625 165.683594 C 180.441406 165.882812 180.210938 166.035156 179.953125 166.140625 C 179.695312 166.25 179.425781 166.300781 179.144531 166.300781 C 178.863281 166.300781 178.59375 166.25 178.335938 166.140625 C 178.074219 166.035156 177.847656 165.882812 177.648438 165.683594 C 177.449219 165.484375 177.296875 165.253906 177.191406 164.996094 C 177.082031 164.738281 177.03125 164.46875 177.03125 164.1875 C 177.03125 163.90625 177.082031 163.636719 177.191406 163.378906 C 177.296875 163.117188 177.449219 162.890625 177.648438 162.691406 C 177.847656 162.492188 178.074219 162.339844 178.335938 162.234375 C 178.59375 162.125 178.863281 162.074219 179.144531 162.074219 C 179.425781 162.074219 179.695312 162.125 179.953125 162.234375 C 180.210938 162.339844 180.441406 162.492188 180.640625 162.691406 Z M 180.640625 162.691406 " fill-opacity="1" fill-rule="nonzero"/><path fill="#4b8f8c" d="M 85.058594 210.25 C 85.257812 210.449219 85.410156 210.679688 85.515625 210.9375 C 85.625 211.195312 85.675781 211.464844 85.675781 211.746094 C 85.675781 212.027344 85.625 212.296875 85.515625 212.554688 C 85.410156 212.816406 85.257812 213.042969 85.058594 213.242188 C 84.859375 213.441406 84.628906 213.59375 84.371094 213.699219 C 84.113281 213.808594 83.84375 213.859375 83.5625 213.859375 C 83.28125 213.859375 83.011719 213.808594 82.753906 213.699219 C 82.492188 213.59375 82.265625 213.441406 82.066406 213.242188 C 81.867188 213.042969 81.714844 212.816406 81.609375 212.554688 C 81.5 212.296875 81.449219 212.027344 81.449219 211.746094 C 81.449219 211.464844 81.5 211.195312 81.609375 210.9375 C 81.714844 210.679688 81.867188 210.449219 82.066406 210.25 C 82.265625 210.054688 82.492188 209.898438 82.753906 209.792969 C 83.011719 209.683594 83.28125 209.632812 83.5625 209.632812 C 83.84375 209.632812 84.113281 209.683594 84.371094 209.792969 C 84.628906 209.898438 84.859375 210.050781 85.058594 210.25 Z M 85.058594 210.25 " fill-opacity="1" fill-rule="nonzero"/><path stroke-linecap="butt" transform="matrix(-0.726508, 0.183122, -0.183122, -0.726508, 99.656545, 166.947979)" fill="none" stroke-linejoin="miter" d="M -0.00144577 0.497966 L 103.097386 0.499063 " stroke="#4b8f8c" stroke-width="1" stroke-opacity="1" stroke-miterlimit="4"/><path stroke-linecap="butt" transform="matrix(0.332749, -0.671287, 0.671287, 0.332749, 129.127889, 120.254676)" fill="none" stroke-linejoin="miter" d="M -0.000208335 0.502057 L 81.866032 0.498123 " stroke="#4b8f8c" stroke-width="1" stroke-opacity="1" stroke-miterlimit="4"/><path stroke-linecap="butt" transform="matrix(0.743377, -0.0934791, 0.0934791, 0.743377, 5.229353, 123.475605)" fill="none" stroke-linejoin="miter" d="M 0.00159708 0.500689 L 36.627446 0.49796 " stroke="#4b8f8c" stroke-width="1" stroke-opacity="1" stroke-miterlimit="4"/><path stroke-linecap="butt" transform="matrix(0.660361, -0.353937, 0.353937, 0.660361, 122.77927, 206.840036)" fill="none" stroke-linejoin="miter" d="M -0.000113508 0.502451 L 51.670893 0.501237 " stroke="#4b8f8c" stroke-width="1" stroke-opacity="1" stroke-miterlimit="4"/><g clip-path="url(#55a856e683)"><path fill="#4b8f8c" d="M 158.574219 186.960938 C 158.769531 187.15625 158.921875 187.386719 159.03125 187.644531 C 159.136719 187.902344 159.191406 188.175781 159.191406 188.453125 C 159.191406 188.734375 159.136719 189.003906 159.03125 189.265625 C 158.921875 189.523438 158.769531 189.75 158.574219 189.949219 C 158.375 190.148438 158.144531 190.300781 157.886719 190.410156 C 157.628906 190.515625 157.359375 190.570312 157.078125 190.570312 C 156.796875 190.570312 156.527344 190.515625 156.269531 190.410156 C 156.007812 190.300781 155.78125 190.148438 155.582031 189.949219 C 155.382812 189.75 155.230469 189.523438 155.125 189.265625 C 155.015625 189.003906 154.960938 188.734375 154.960938 188.453125 C 154.960938 188.175781 155.015625 187.90625 155.125 187.644531 C 155.230469 187.386719 155.382812 187.15625 155.582031 186.960938 C 155.78125 186.761719 156.007812 186.609375 156.269531 186.5 C 156.527344 186.394531 156.796875 186.339844 157.078125 186.339844 C 157.359375 186.339844 157.628906 186.394531 157.886719 186.5 C 158.144531 186.609375 158.375 186.761719 158.574219 186.960938 Z M 158.574219 186.960938 " fill-opacity="1" fill-rule="nonzero"/></g><path stroke-linecap="butt" transform="matrix(0.495643, -0.56186, 0.56186, 0.495643, 156.973869, 188.303902)" fill="none" stroke-linejoin="miter" d="M 0.000154586 0.498275 L 44.163622 0.500643 " stroke="#4b8f8c" stroke-width="1" stroke-opacity="1" stroke-miterlimit="4"/><path stroke-linecap="butt" transform="matrix(0.747174, 0.0554902, -0.0554902, 0.747174, 105.508659, 61.466775)" fill="none" stroke-linejoin="miter" d="M -0.000643799 0.499354 L 66.886757 0.498478 " stroke="#4b8f8c" stroke-width="1" stroke-opacity="1" stroke-miterlimit="4"/><path stroke-linecap="butt" transform="matrix(0.377974, 0.646903, -0.646903, 0.377974, 157.027662, 65.244261)" fill="none" stroke-linejoin="miter" d="M -0.000332828 0.501484 L 85.009305 0.499336 " stroke="#4b8f8c" stroke-width="1" stroke-opacity="1" stroke-miterlimit="4"/><path stroke-linecap="butt" transform="matrix(-0.747471, -0.0513338, 0.0513338, -0.747471, 188.804971, 120.58125)" fill="none" stroke-linejoin="miter" d="M -0.00181072 0.500771 L 79.432762 0.50137 " stroke="#4b8f8c" stroke-width="1" stroke-opacity="1" stroke-miterlimit="4"/><path stroke-linecap="butt" transform="matrix(0.574148, 0.481355, -0.481355, 0.574148, 156.945626, 65.146211)" fill="none" stroke-linejoin="miter" d="M -0.00160049 0.501879 L 46.844072 0.497519 " stroke="#4b8f8c" stroke-width="1" stroke-opacity="1" stroke-miterlimit="4"/><path fill="#4b8f8c" d="M 150.230469 157.359375 C 150.429688 157.558594 150.582031 157.785156 150.691406 158.046875 C 150.796875 158.304688 150.851562 158.574219 150.851562 158.855469 C 150.851562 159.136719 150.796875 159.40625 150.691406 159.664062 C 150.582031 159.921875 150.429688 160.152344 150.230469 160.351562 C 150.035156 160.546875 149.804688 160.703125 149.546875 160.808594 C 149.285156 160.914062 149.015625 160.96875 148.738281 160.96875 C 148.457031 160.96875 148.1875 160.914062 147.925781 160.808594 C 147.667969 160.703125 147.441406 160.546875 147.242188 160.351562 C 147.042969 160.152344 146.890625 159.921875 146.78125 159.664062 C 146.675781 159.40625 146.621094 159.136719 146.621094 158.855469 C 146.621094 158.574219 146.675781 158.304688 146.78125 158.046875 C 146.890625 157.785156 147.042969 157.558594 147.242188 157.359375 C 147.441406 157.160156 147.667969 157.007812 147.925781 156.902344 C 148.1875 156.792969 148.457031 156.738281 148.738281 156.738281 C 149.015625 156.738281 149.285156 156.792969 149.546875 156.902344 C 149.804688 157.007812 150.035156 157.160156 150.230469 157.359375 Z M 150.230469 157.359375 " fill-opacity="1" fill-rule="nonzero"/><path stroke-linecap="butt" transform="matrix(0.421675, -0.619305, 0.619305, 0.421675, 99.257016, 166.372914)" fill="none" stroke-linejoin="miter" d="M 0.00170119 0.498418 L 83.235321 0.498636 " stroke="#4b8f8c" stroke-width="1" stroke-opacity="1" stroke-miterlimit="4"/><path stroke-linecap="butt" transform="matrix(0.267507, 0.699849, -0.699849, 0.267507, 132.895617, 114.903818)" fill="none" stroke-linejoin="miter" d="M 0.00242215 0.499237 L 62.616573 0.498805 " stroke="#4b8f8c" stroke-width="1" stroke-opacity="1" stroke-miterlimit="4"/><path stroke-linecap="butt" transform="matrix(0.741011, -0.110682, 0.110682, 0.741011, 99.511697, 166.213878)" fill="none" stroke-linejoin="miter" d="M -0.00114033 0.501926 L 67.110822 0.499728 " stroke="#4b8f8c" stroke-width="1" stroke-opacity="1" stroke-miterlimit="4"/><path stroke-linecap="butt" transform="matrix(0.738444, 0.126681, -0.126681, 0.738444, 70.7151, 105.235277)" fill="none" stroke-linejoin="miter" d="M 0.000987842 0.501144 L 87.976217 0.500764 " stroke="#4b8f8c" stroke-width="1" stroke-opacity="1" stroke-miterlimit="4"/><path stroke-linecap="butt" transform="matrix(0.470473, -0.583098, 0.583098, 0.470473, 70.35825, 105.364468)" fill="none" stroke-linejoin="miter" d="M -0.00307092 0.500143 L 74.030659 0.502155 " stroke="#4b8f8c" stroke-width="1" stroke-opacity="1" stroke-miterlimit="4"/><path stroke-linecap="butt" transform="matrix(0.335803, 0.669764, -0.669764, 0.335803, 105.814878, 62.047471)" fill="none" stroke-linejoin="miter" d="M -0.000348264 0.499119 L 86.91108 0.501413 " stroke="#4b8f8c" stroke-width="1" stroke-opacity="1" stroke-miterlimit="4"/><path stroke-linecap="butt" transform="matrix(0.375651, 0.648255, -0.648255, 0.375651, 99.88836, 166.998639)" fill="none" stroke-linejoin="miter" d="M 0.0000364814 0.502694 L 62.265165 0.501623 " stroke="#4b8f8c" stroke-width="1" stroke-opacity="1" stroke-miterlimit="4"/><path stroke-linecap="butt" transform="matrix(-0.373227, 0.649653, -0.649653, -0.373227, 149.61327, 159.348048)" fill="none" stroke-linejoin="miter" d="M -0.00189052 0.500133 L 74.485135 0.500418 " stroke="#4b8f8c" stroke-width="1" stroke-opacity="1" stroke-miterlimit="4"/><path stroke-linecap="butt" transform="matrix(0.596546, -0.4533, 0.4533, 0.596546, 121.26992, 207.244151)" fill="none" stroke-linejoin="miter" d="M -0.000945881 0.500194 L 96.63539 0.501059 " stroke="#4b8f8c" stroke-width="1" stroke-opacity="1" stroke-miterlimit="4"/><path stroke-linecap="butt" transform="matrix(-0.74711, 0.0563489, -0.0563489, -0.74711, 53.756164, 68.833593)" fill="none" stroke-linejoin="miter" d="M 0.00198952 0.498947 L 52.239554 0.501786 " stroke="#4b8f8c" stroke-width="1" stroke-opacity="1" stroke-miterlimit="4"/><path stroke-linecap="butt" transform="matrix(-0.228005, -0.713696, 0.713696, -0.228005, 55.975692, 71.220372)" fill="none" stroke-linejoin="miter" d="M 0.00135119 0.499719 L 46.327111 0.499742 " stroke="#4b8f8c" stroke-width="1" stroke-opacity="1" stroke-miterlimit="4"/><path stroke-linecap="butt" transform="matrix(-0.516311, 0.542928, -0.542928, -0.516311, 46.041566, 38.943788)" fill="none" stroke-linejoin="miter" d="M 0.00233092 0.498834 L 59.729669 0.502426 " stroke="#4b8f8c" stroke-width="1" stroke-opacity="1" stroke-miterlimit="4"/><path stroke-linecap="butt" transform="matrix(-0.741803, 0.105245, -0.105245, -0.741803, 105.524835, 62.211535)" fill="none" stroke-linejoin="miter" d="M -0.000733965 0.500961 L 69.809232 0.500251 " stroke="#4b8f8c" stroke-width="1" stroke-opacity="1" stroke-miterlimit="4"/><path stroke-linecap="butt" transform="matrix(0.277565, 0.695921, -0.695921, 0.277565, 56.686355, 67.687993)" fill="none" stroke-linejoin="miter" d="M 0.00238955 0.49887 L 54.285914 0.500032 " stroke="#4b8f8c" stroke-width="1" stroke-opacity="1" stroke-miterlimit="4"/><path stroke-linecap="butt" transform="matrix(-0.279738, 0.69505, -0.69505, -0.279738, 54.955361, 65.628227)" fill="none" stroke-linejoin="miter" d="M -0.000862001 0.498133 L 79.04629 0.499218 " stroke="#4b8f8c" stroke-width="1" stroke-opacity="1" stroke-miterlimit="4"/><path stroke-linecap="butt" transform="matrix(-0.699567, 0.268243, -0.268243, -0.699567, 71.167727, 105.998697)" fill="none" stroke-linejoin="miter" d="M -0.00216017 0.499852 L 55.08281 0.498145 " stroke="#4b8f8c" stroke-width="1" stroke-opacity="1" stroke-miterlimit="4"/><path stroke-linecap="butt" transform="matrix(-0.252731, -0.705319, 0.705319, -0.252731, 32.149866, 120.549722)" fill="none" stroke-linejoin="miter" d="M 0.00124056 0.502401 L 69.501785 0.500331 " stroke="#4b8f8c" stroke-width="1" stroke-opacity="1" stroke-miterlimit="4"/><g clip-path="url(#9fc4b4a9ed)"><path stroke-linecap="butt" transform="matrix(-0.300116, -0.686497, 0.686497, -0.300116, 14.355384, 146.590934)" fill="none" stroke-linejoin="miter" d="M -0.000962059 0.500434 L 31.648439 0.49823 " stroke="#4b8f8c" stroke-width="1" stroke-opacity="1" stroke-miterlimit="4"/></g><path stroke-linecap="butt" transform="matrix(-0.185362, -0.72594, 0.72594, -0.185362, 24.303195, 185.556123)" fill="none" stroke-linejoin="miter" d="M -0.00240805 0.501869 L 53.748468 0.499844 " stroke="#4b8f8c" stroke-width="1" stroke-opacity="1" stroke-miterlimit="4"/><g clip-path="url(#a930e3c729)"><path stroke-linecap="butt" transform="matrix(0.284182, -0.693245, 0.693245, 0.284182, 2.828293, 99.381899)" fill="none" stroke-linejoin="miter" d="M 0.00112038 0.50079 L 40.565393 0.50038 " stroke="#4b8f8c" stroke-width="1" stroke-opacity="1" stroke-miterlimit="4"/></g><path stroke-linecap="butt" transform="matrix(0.336602, -0.669363, 0.669363, 0.336602, 56.002919, 65.312359)" fill="none" stroke-linejoin="miter" d="M -0.000769824 0.497903 L 52.668487 0.500758 " stroke="#4b8f8c" stroke-width="1" stroke-opacity="1" stroke-miterlimit="4"/><g clip-path="url(#8ebc300e67)"><path stroke-linecap="butt" transform="matrix(-0.0589087, -0.746912, 0.746912, -0.0589087, 4.53453, 124.645386)" fill="none" stroke-linejoin="miter" d="M -0.0014883 0.497558 L 34.860493 0.501431 " stroke="#4b8f8c" stroke-width="1" stroke-opacity="1" stroke-miterlimit="4"/></g><path stroke-linecap="butt" transform="matrix(-0.529825, -0.529748, 0.529748, -0.529825, 105.214951, 62.739327)" fill="none" stroke-linejoin="miter" d="M 0.00105148 0.502267 L 59.938205 0.499267 " stroke="#4b8f8c" stroke-width="1" stroke-opacity="1" stroke-miterlimit="4"/><g clip-path="url(#30a072a084)"><path fill="#4b8f8c" d="M 29.152344 47.546875 C 29.351562 47.746094 29.503906 47.976562 29.609375 48.234375 C 29.71875 48.492188 29.773438 48.761719 29.773438 49.042969 C 29.773438 49.324219 29.71875 49.59375 29.609375 49.851562 C 29.503906 50.113281 29.351562 50.339844 29.152344 50.539062 C 28.953125 50.738281 28.726562 50.890625 28.464844 50.996094 C 28.207031 51.105469 27.9375 51.160156 27.65625 51.160156 C 27.375 51.160156 27.105469 51.105469 26.847656 50.996094 C 26.589844 50.890625 26.359375 50.738281 26.160156 50.539062 C 25.964844 50.339844 25.8125 50.113281 25.703125 49.851562 C 25.597656 49.59375 25.542969 49.324219 25.542969 49.042969 C 25.542969 48.761719 25.597656 48.492188 25.703125 48.234375 C 25.8125 47.976562 25.964844 47.746094 26.160156 47.546875 C 26.359375 47.351562 26.589844 47.199219 26.847656 47.089844 C 27.105469 46.984375 27.375 46.929688 27.65625 46.929688 C 27.9375 46.929688 28.207031 46.984375 28.464844 47.089844 C 28.726562 47.199219 28.953125 47.351562 29.152344 47.546875 Z M 29.152344 47.546875 " fill-opacity="1" fill-rule="nonzero"/></g><path fill="#4b8f8c" d="M 16.195312 70.683594 C 16.394531 70.878906 16.546875 71.109375 16.65625 71.367188 C 16.761719 71.628906 16.816406 71.898438 16.816406 72.179688 C 16.816406 72.457031 16.761719 72.726562 16.65625 72.988281 C 16.546875 73.246094 16.394531 73.476562 16.195312 73.671875 C 16 73.871094 15.769531 74.023438 15.511719 74.132812 C 15.25 74.238281 14.980469 74.292969 14.703125 74.292969 C 14.421875 74.292969 14.152344 74.238281 13.890625 74.132812 C 13.632812 74.023438 13.402344 73.871094 13.207031 73.671875 C 13.007812 73.476562 12.855469 73.246094 12.746094 72.988281 C 12.640625 72.726562 12.585938 72.457031 12.585938 72.179688 C 12.585938 71.898438 12.640625 71.628906 12.746094 71.367188 C 12.855469 71.109375 13.007812 70.878906 13.207031 70.683594 C 13.402344 70.484375 13.632812 70.332031 13.890625 70.222656 C 14.152344 70.117188 14.421875 70.0625 14.703125 70.0625 C 14.980469 70.0625 15.25 70.117188 15.511719 70.222656 C 15.769531 70.332031 16 70.484375 16.195312 70.683594 Z M 16.195312 70.683594 " fill-opacity="1" fill-rule="nonzero"/><path fill="#4b8f8c" d="M 4.667969 97.089844 C 4.867188 97.285156 5.019531 97.515625 5.128906 97.773438 C 5.234375 98.035156 5.289062 98.304688 5.289062 98.582031 C 5.289062 98.863281 5.234375 99.132812 5.128906 99.394531 C 5.019531 99.652344 4.867188 99.878906 4.667969 100.078125 C 4.46875 100.277344 4.242188 100.429688 3.984375 100.539062 C 3.722656 100.644531 3.453125 100.699219 3.171875 100.699219 C 2.894531 100.699219 2.625 100.644531 2.363281 100.539062 C 2.105469 100.429688 1.875 100.277344 1.679688 100.078125 C 1.480469 99.878906 1.328125 99.652344 1.21875 99.394531 C 1.113281 99.132812 1.058594 98.863281 1.058594 98.582031 C 1.058594 98.304688 1.113281 98.035156 1.21875 97.773438 C 1.328125 97.515625 1.480469 97.285156 1.679688 97.089844 C 1.875 96.890625 2.105469 96.738281 2.363281 96.628906 C 2.625 96.523438 2.894531 96.46875 3.171875 96.46875 C 3.453125 96.46875 3.722656 96.523438 3.984375 96.628906 C 4.242188 96.738281 4.46875 96.890625 4.667969 97.089844 Z M 4.667969 97.089844 " fill-opacity="1" fill-rule="nonzero"/><path fill="#4b8f8c" d="M 7.347656 122.351562 C 7.542969 122.546875 7.699219 122.777344 7.804688 123.035156 C 7.914062 123.296875 7.964844 123.566406 7.964844 123.84375 C 7.964844 124.125 7.914062 124.394531 7.804688 124.65625 C 7.699219 124.914062 7.542969 125.144531 7.347656 125.339844 C 7.148438 125.539062 6.917969 125.691406 6.660156 125.800781 C 6.402344 125.90625 6.132812 125.960938 5.851562 125.960938 C 5.570312 125.960938 5.300781 125.90625 5.042969 125.800781 C 4.78125 125.691406 4.554688 125.539062 4.355469 125.339844 C 4.15625 125.144531 4.003906 124.914062 3.898438 124.65625 C 3.789062 124.394531 3.734375 124.125 3.734375 123.84375 C 3.734375 123.566406 3.789062 123.296875 3.898438 123.035156 C 4.003906 122.777344 4.15625 122.546875 4.355469 122.351562 C 4.554688 122.152344 4.78125 122 5.042969 121.890625 C 5.300781 121.785156 5.570312 121.730469 5.851562 121.730469 C 6.132812 121.730469 6.402344 121.785156 6.660156 121.890625 C 6.917969 122 7.148438 122.152344 7.347656 122.351562 Z M 7.347656 122.351562 " fill-opacity="1" fill-rule="nonzero"/><path fill="#4b8f8c" d="M 35.671875 118.160156 C 36.027344 118.515625 36.304688 118.929688 36.496094 119.394531 C 36.691406 119.859375 36.789062 120.347656 36.789062 120.851562 C 36.789062 121.355469 36.691406 121.84375 36.496094 122.308594 C 36.304688 122.773438 36.027344 123.1875 35.671875 123.542969 C 35.316406 123.902344 34.902344 124.175781 34.4375 124.367188 C 33.96875 124.5625 33.484375 124.660156 32.980469 124.660156 C 32.476562 124.660156 31.988281 124.5625 31.523438 124.367188 C 31.054688 124.175781 30.644531 123.902344 30.289062 123.542969 C 29.929688 123.1875 29.65625 122.773438 29.460938 122.308594 C 29.269531 121.84375 29.171875 121.355469 29.171875 120.851562 C 29.171875 120.347656 29.269531 119.859375 29.460938 119.394531 C 29.65625 118.929688 29.929688 118.515625 30.289062 118.160156 C 30.644531 117.800781 31.054688 117.527344 31.523438 117.332031 C 31.988281 117.140625 32.476562 117.042969 32.980469 117.042969 C 33.484375 117.042969 33.96875 117.140625 34.4375 117.332031 C 34.902344 117.527344 35.316406 117.800781 35.671875 118.160156 Z M 35.671875 118.160156 " fill-opacity="1" fill-rule="nonzero"/><path fill="#4b8f8c" d="M 16.195312 144.945312 C 16.394531 145.144531 16.546875 145.375 16.65625 145.632812 C 16.761719 145.890625 16.816406 146.160156 16.816406 146.441406 C 16.816406 146.722656 16.761719 146.992188 16.65625 147.25 C 16.546875 147.511719 16.394531 147.738281 16.195312 147.9375 C 16 148.136719 15.769531 148.289062 15.511719 148.394531 C 15.25 148.503906 14.980469 148.558594 14.703125 148.558594 C 14.421875 148.558594 14.152344 148.503906 13.890625 148.394531 C 13.632812 148.289062 13.402344 148.136719 13.207031 147.9375 C 13.007812 147.738281 12.855469 147.511719 12.746094 147.25 C 12.640625 146.992188 12.585938 146.722656 12.585938 146.441406 C 12.585938 146.160156 12.640625 145.890625 12.746094 145.632812 C 12.855469 145.375 13.007812 145.144531 13.207031 144.945312 C 13.402344 144.75 13.632812 144.59375 13.890625 144.488281 C 14.152344 144.382812 14.421875 144.328125 14.703125 144.328125 C 14.980469 144.328125 15.25 144.382812 15.511719 144.488281 C 15.769531 144.59375 16 144.75 16.195312 144.945312 Z M 16.195312 144.945312 " fill-opacity="1" fill-rule="nonzero"/><g clip-path="url(#61e47f718c)"><path fill="#4b8f8c" d="M 8.421875 150.238281 C 8.621094 150.4375 8.773438 150.664062 8.878906 150.925781 C 8.988281 151.183594 9.039062 151.453125 9.039062 151.734375 C 9.039062 152.015625 8.988281 152.285156 8.878906 152.542969 C 8.773438 152.800781 8.621094 153.03125 8.421875 153.230469 C 8.222656 153.429688 7.996094 153.582031 7.734375 153.6875 C 7.476562 153.796875 7.207031 153.847656 6.925781 153.847656 C 6.644531 153.847656 6.375 153.796875 6.117188 153.6875 C 5.859375 153.582031 5.628906 153.429688 5.429688 153.230469 C 5.234375 153.03125 5.078125 152.804688 4.972656 152.542969 C 4.863281 152.285156 4.8125 152.015625 4.8125 151.734375 C 4.8125 151.453125 4.863281 151.183594 4.972656 150.925781 C 5.078125 150.664062 5.230469 150.4375 5.429688 150.238281 C 5.628906 150.039062 5.859375 149.886719 6.117188 149.78125 C 6.375 149.671875 6.644531 149.621094 6.925781 149.621094 C 7.207031 149.621094 7.476562 149.671875 7.734375 149.78125 C 7.996094 149.886719 8.222656 150.039062 8.421875 150.238281 Z M 8.421875 150.238281 " fill-opacity="1" fill-rule="nonzero"/></g><path fill="#4b8f8c" d="M 26.160156 183.039062 C 26.359375 183.234375 26.511719 183.464844 26.617188 183.722656 C 26.726562 183.984375 26.78125 184.253906 26.78125 184.535156 C 26.78125 184.8125 26.726562 185.082031 26.617188 185.34375 C 26.511719 185.601562 26.359375 185.832031 26.160156 186.027344 C 25.960938 186.226562 25.734375 186.378906 25.472656 186.488281 C 25.214844 186.59375 24.945312 186.648438 24.664062 186.648438 C 24.382812 186.648438 24.113281 186.59375 23.855469 186.488281 C 23.597656 186.378906 23.367188 186.226562 23.167969 186.027344 C 22.972656 185.832031 22.816406 185.601562 22.710938 185.34375 C 22.605469 185.082031 22.550781 184.8125 22.550781 184.535156 C 22.550781 184.253906 22.601562 183.984375 22.710938 183.722656 C 22.816406 183.464844 22.972656 183.234375 23.167969 183.039062 C 23.367188 182.839844 23.597656 182.6875 23.855469 182.578125 C 24.113281 182.472656 24.382812 182.417969 24.664062 182.417969 C 24.945312 182.417969 25.214844 182.472656 25.472656 182.578125 C 25.734375 182.6875 25.960938 182.839844 26.160156 183.039062 Z M 26.160156 183.039062 " fill-opacity="1" fill-rule="nonzero"/><path fill="#4b8f8c" d="M 52.230469 202.683594 C 52.429688 202.882812 52.582031 203.109375 52.691406 203.371094 C 52.796875 203.628906 52.851562 203.898438 52.851562 204.179688 C 52.851562 204.460938 52.796875 204.730469 52.691406 204.988281 C 52.582031 205.246094 52.429688 205.476562 52.230469 205.675781 C 52.03125 205.871094 51.804688 206.023438 51.546875 206.132812 C 51.285156 206.238281 51.015625 206.292969 50.734375 206.292969 C 50.457031 206.292969 50.183594 206.238281 49.925781 206.132812 C 49.667969 206.023438 49.4375 205.871094 49.242188 205.675781 C 49.042969 205.476562 48.890625 205.246094 48.78125 204.988281 C 48.675781 204.730469 48.621094 204.460938 48.621094 204.179688 C 48.621094 203.898438 48.675781 203.628906 48.78125 203.371094 C 48.890625 203.109375 49.042969 202.882812 49.242188 202.683594 C 49.4375 202.484375 49.667969 202.332031 49.925781 202.226562 C 50.183594 202.117188 50.457031 202.0625 50.734375 202.0625 C 51.015625 202.0625 51.285156 202.117188 51.546875 202.226562 C 51.804688 202.332031 52.03125 202.484375 52.230469 202.683594 Z M 52.230469 202.683594 " fill-opacity="1" fill-rule="nonzero"/><path fill="#4b8f8c" d="M 73.722656 102.96875 C 74.082031 103.324219 74.355469 103.738281 74.550781 104.203125 C 74.742188 104.671875 74.839844 105.15625 74.839844 105.660156 C 74.839844 106.164062 74.742188 106.652344 74.550781 107.117188 C 74.355469 107.585938 74.082031 107.996094 73.722656 108.351562 C 73.367188 108.710938 72.957031 108.984375 72.488281 109.179688 C 72.023438 109.371094 71.535156 109.46875 71.03125 109.46875 C 70.527344 109.46875 70.042969 109.371094 69.574219 109.179688 C 69.109375 108.984375 68.695312 108.710938 68.339844 108.351562 C 67.984375 107.996094 67.707031 107.585938 67.515625 107.117188 C 67.320312 106.652344 67.222656 106.164062 67.222656 105.660156 C 67.222656 105.15625 67.320312 104.671875 67.515625 104.203125 C 67.707031 103.738281 67.984375 103.324219 68.339844 102.96875 C 68.695312 102.613281 69.109375 102.335938 69.574219 102.144531 C 70.042969 101.949219 70.527344 101.851562 71.03125 101.851562 C 71.535156 101.851562 72.023438 101.949219 72.488281 102.144531 C 72.957031 102.335938 73.367188 102.613281 73.722656 102.96875 Z M 73.722656 102.96875 " fill-opacity="1" fill-rule="nonzero"/><g fill="#4b8f8c" fill-opacity="1"><g transform="translate(196.641716, 168.013577)"><g><path d="M 43.28125 -53.515625 C 56.039062 -53.515625 62.421875 -58.550781 62.421875 -68.625 C 62.421875 -78.507812 56.039062 -83.453125 43.28125 -83.453125 L 28.578125 -83.453125 L 28.578125 -53.515625 Z M 43.28125 -37.078125 L 28.578125 -37.078125 L 28.578125 0 L 8.765625 0 L 8.765625 -99.890625 L 43.28125 -99.890625 C 69.25 -99.890625 82.234375 -89.46875 82.234375 -68.625 C 82.234375 -47.59375 69.25 -37.078125 43.28125 -37.078125 Z M 43.28125 -37.078125 "/></g></g></g><g fill="#4b8f8c" fill-opacity="1"><g transform="translate(281.566899, 168.013577)"><g><path d="M 52.4375 -55.265625 C 48.039062 -56.441406 43.953125 -57.03125 40.171875 -57.03125 C 33.972656 -57.03125 29.03125 -52.351562 25.34375 -43 L 25.34375 0 L 7.421875 0 L 7.421875 -72.53125 L 23.734375 -72.53125 L 24.265625 -63.359375 C 25.796875 -69.472656 31.097656 -72.53125 40.171875 -72.53125 C 44.753906 -72.53125 49.832031 -71.226562 55.40625 -68.625 Z M 52.4375 -55.265625 "/></g></g></g><g fill="#4b8f8c" fill-opacity="1"><g transform="translate(338.58811, 168.013577)"><g><path d="M 72.390625 -34.375 C 72.390625 -24.9375 69.828125 -16.847656 64.703125 -10.109375 C 59.585938 -3.367188 51.679688 0 40.984375 0 L 35.59375 0 C 24.894531 0 16.960938 -3.367188 11.796875 -10.109375 C 6.628906 -16.847656 4.046875 -24.9375 4.046875 -34.375 L 4.046875 -38.015625 C 4.046875 -47.628906 6.628906 -55.804688 11.796875 -62.546875 C 16.960938 -69.285156 24.894531 -72.65625 35.59375 -72.65625 L 40.984375 -72.65625 C 51.679688 -72.65625 59.585938 -69.285156 64.703125 -62.546875 C 69.828125 -55.804688 72.390625 -47.628906 72.390625 -38.015625 Z M 38.28125 -57.5625 C 27.769531 -57.5625 22.515625 -51.046875 22.515625 -38.015625 L 22.515625 -34.375 C 22.515625 -21.519531 27.769531 -15.09375 38.28125 -15.09375 C 48.257812 -15.09375 53.25 -21.519531 53.25 -34.375 L 53.25 -38.015625 C 53.25 -51.046875 48.257812 -57.5625 38.28125 -57.5625 Z M 38.28125 -57.5625 "/></g></g></g><g fill="#4b8f8c" fill-opacity="1"><g transform="translate(415.020794, 168.013577)"><g><path d="M 12.8125 -0.546875 L 12.8125 -58.90625 L 1.75 -58.90625 L 1.75 -72.65625 L 12.8125 -72.65625 L 12.8125 -78.734375 C 12.8125 -95.628906 20.539062 -104.078125 36 -104.078125 C 41.382812 -104.078125 46.597656 -103 51.640625 -100.84375 L 48.125 -89.515625 C 44.894531 -89.609375 41.75 -89.65625 38.6875 -89.65625 C 34.195312 -89.65625 31.953125 -85.878906 31.953125 -78.328125 L 31.953125 -72.65625 L 46.640625 -72.65625 L 46.640625 -58.90625 L 31.953125 -58.90625 L 31.953125 -0.546875 Z M 12.8125 -0.546875 "/></g></g></g><g fill="#4b8f8c" fill-opacity="1"><g transform="translate(466.64993, 168.013577)"><g><path d="M 23.453125 -43.40625 L 42.875 -43.40625 C 46.644531 -43.40625 48.53125 -44.800781 48.53125 -47.59375 C 48.53125 -51.726562 47.71875 -54.738281 46.09375 -56.625 C 44.476562 -58.507812 41.113281 -59.5 36 -59.59375 C 30.875 -59.59375 27.503906 -57.972656 25.890625 -54.734375 C 24.535156 -51.765625 23.722656 -47.988281 23.453125 -43.40625 Z M 23.859375 -29.53125 C 24.222656 -26.113281 24.941406 -23.367188 26.015625 -21.296875 C 27.722656 -17.523438 32.082031 -15.640625 39.09375 -15.640625 C 45.5625 -15.640625 53.335938 -16.359375 62.421875 -17.796875 L 65.78125 -6.203125 C 55.632812 -1.972656 46.601562 0.140625 38.6875 0.140625 C 25.382812 0.140625 16.304688 -3.539062 11.453125 -10.90625 C 6.597656 -18.28125 4.171875 -27.539062 4.171875 -38.6875 C 4.710938 -48.570312 7.226562 -56.863281 11.71875 -63.5625 C 16.21875 -70.257812 24.128906 -73.609375 35.453125 -73.609375 C 46.773438 -73.609375 54.707031 -71.113281 59.25 -66.125 C 63.789062 -61.132812 66.148438 -54.503906 66.328125 -46.234375 C 66.328125 -40.484375 64.890625 -36.257812 62.015625 -33.5625 C 59.140625 -30.875 54.554688 -29.53125 48.265625 -29.53125 Z M 23.859375 -29.53125 "/></g></g></g><g fill="#4b8f8c" fill-opacity="1"><g transform="translate(536.746914, 168.013577)"><g><path d="M 70.5 -80.21875 C 60.082031 -82.101562 50.242188 -83.132812 40.984375 -83.3125 C 30.109375 -83.3125 24.671875 -79.894531 24.671875 -73.0625 L 24.671875 -68.34375 C 25.023438 -64.125 27.363281 -61.335938 31.6875 -59.984375 L 53.921875 -55.953125 C 68.578125 -53.253906 75.945312 -44.3125 76.03125 -29.125 L 76.03125 -24.9375 C 75.226562 -8.039062 63.953125 0.40625 42.203125 0.40625 C 31.140625 0.226562 19.050781 -1.34375 5.9375 -4.3125 L 8.21875 -19.28125 C 19.726562 -17.75 30.785156 -16.894531 41.390625 -16.71875 C 51.003906 -16.71875 55.898438 -19.457031 56.078125 -24.9375 L 56.078125 -29.125 C 56.078125 -35.050781 53.289062 -38.507812 47.71875 -39.5 L 25.484375 -43.546875 C 12.453125 -46.054688 5.53125 -54.28125 4.71875 -68.21875 L 4.71875 -73.0625 C 4.71875 -91.3125 16.804688 -100.4375 40.984375 -100.4375 C 49.785156 -100.34375 60.390625 -98.585938 72.796875 -95.171875 Z M 70.5 -80.21875 "/></g></g></g><g fill="#4b8f8c" fill-opacity="1"><g transform="translate(617.89766, 168.013577)"><g><path d="M 72.390625 -34.375 C 72.390625 -24.9375 69.828125 -16.847656 64.703125 -10.109375 C 59.585938 -3.367188 51.679688 0 40.984375 0 L 35.59375 0 C 24.894531 0 16.960938 -3.367188 11.796875 -10.109375 C 6.628906 -16.847656 4.046875 -24.9375 4.046875 -34.375 L 4.046875 -38.015625 C 4.046875 -47.628906 6.628906 -55.804688 11.796875 -62.546875 C 16.960938 -69.285156 24.894531 -72.65625 35.59375 -72.65625 L 40.984375 -72.65625 C 51.679688 -72.65625 59.585938 -69.285156 64.703125 -62.546875 C 69.828125 -55.804688 72.390625 -47.628906 72.390625 -38.015625 Z M 38.28125 -57.5625 C 27.769531 -57.5625 22.515625 -51.046875 22.515625 -38.015625 L 22.515625 -34.375 C 22.515625 -21.519531 27.769531 -15.09375 38.28125 -15.09375 C 48.257812 -15.09375 53.25 -21.519531 53.25 -34.375 L 53.25 -38.015625 C 53.25 -51.046875 48.257812 -57.5625 38.28125 -57.5625 Z M 38.28125 -57.5625 "/></g></g></g><g fill="#4b8f8c" fill-opacity="1"><g transform="translate(694.330344, 168.013577)"><g><path d="M 52.4375 -55.265625 C 48.039062 -56.441406 43.953125 -57.03125 40.171875 -57.03125 C 33.972656 -57.03125 29.03125 -52.351562 25.34375 -43 L 25.34375 0 L 7.421875 0 L 7.421875 -72.53125 L 23.734375 -72.53125 L 24.265625 -63.359375 C 25.796875 -69.472656 31.097656 -72.53125 40.171875 -72.53125 C 44.753906 -72.53125 49.832031 -71.226562 55.40625 -68.625 Z M 52.4375 -55.265625 "/></g></g></g><g fill="#4b8f8c" fill-opacity="1"><g transform="translate(751.351555, 168.013577)"><g><path d="M 31.671875 -91.8125 L 31.671875 -72.65625 L 47.046875 -72.65625 L 47.046875 -59.046875 L 31.671875 -59.046875 L 31.671875 -24.40625 C 31.671875 -18.289062 33.289062 -15.234375 36.53125 -15.234375 C 39.757812 -15.234375 42.945312 -15.28125 46.09375 -15.375 L 48.25 -3.375 C 43.9375 -1.125 37.738281 0 29.65625 0 C 18.238281 0 12.53125 -7.234375 12.53125 -21.703125 L 12.53125 -59.046875 L 0.671875 -59.046875 L 0.671875 -72.65625 L 12.53125 -72.65625 L 12.53125 -91.8125 Z M 31.671875 -91.8125 "/></g></g></g><g fill="#eaf2f3" fill-opacity="1"><g transform="translate(207.315527, 157.546493)"><g><path d="M 34.28125 -38.390625 C 49.957031 -38.390625 57.796875 -45.226562 57.796875 -58.90625 C 57.796875 -72.4375 49.957031 -79.203125 34.28125 -79.203125 L 12.203125 -79.203125 L 12.203125 -38.390625 Z M 40.046875 -35.71875 C 38.273438 -35.5 36.351562 -35.390625 34.28125 -35.390625 L 12.203125 -35.390625 L 12.203125 0 L 9.203125 0 L 9.203125 -82.203125 L 34.28125 -82.203125 C 51.957031 -82.203125 60.796875 -74.4375 60.796875 -58.90625 C 60.796875 -46.113281 54.914062 -38.535156 43.15625 -36.171875 Z M 40.046875 -35.71875 "/></g></g></g><g fill="#eaf2f3" fill-opacity="1"><g transform="translate(290.939422, 157.150643)"><g><path d="M 35.09375 -51.265625 C 33.050781 -51.804688 30.742188 -52.078125 28.171875 -52.078125 C 19.828125 -52.003906 13.925781 -46.613281 10.46875 -35.90625 L 10.46875 -0.203125 L 7.734375 -0.203125 L 7.734375 -54.8125 L 10.46875 -54.8125 L 10.46875 -41.703125 C 13.925781 -50.441406 19.828125 -54.8125 28.171875 -54.8125 C 30.742188 -54.8125 33.320312 -54.472656 35.90625 -53.796875 Z M 35.09375 -51.265625 "/></g></g></g><g fill="#eaf2f3" fill-opacity="1"><g transform="translate(349.508694, 158.337914)"><g><path d="M 51.0625 -24.921875 C 51.0625 -8.304688 43.601562 0 28.6875 0 L 26.640625 0 C 11.929688 0 4.578125 -8.304688 4.578125 -24.921875 L 4.578125 -29.703125 C 4.578125 -46.441406 11.929688 -54.8125 26.640625 -54.8125 L 28.6875 -54.8125 C 43.601562 -54.8125 51.0625 -46.441406 51.0625 -29.703125 Z M 26.640625 -52.078125 C 13.765625 -52.078125 7.328125 -44.617188 7.328125 -29.703125 L 7.328125 -24.921875 C 7.328125 -10.140625 13.765625 -2.75 26.640625 -2.75 L 28.6875 -2.75 C 41.769531 -2.75 48.3125 -10.140625 48.3125 -24.921875 L 48.3125 -29.703125 C 48.3125 -44.617188 41.769531 -52.078125 28.6875 -52.078125 Z M 26.640625 -52.078125 "/></g></g></g><g fill="#eaf2f3" fill-opacity="1"><g transform="translate(424.034012, 157.546493)"><g><path d="M 12.765625 -0.4375 L 12.765625 -56.796875 L 2.546875 -56.796875 L 2.546875 -59.796875 L 12.765625 -59.796875 L 12.765625 -70.328125 C 12.765625 -80.535156 17.828125 -85.640625 27.953125 -85.640625 C 30.171875 -85.640625 32.910156 -85.234375 36.171875 -84.421875 L 35.5 -81.546875 C 32.988281 -82.285156 30.472656 -82.65625 27.953125 -82.65625 C 19.816406 -82.65625 15.75 -78.4375 15.75 -70 L 15.75 -59.796875 L 31.171875 -59.796875 L 31.171875 -56.796875 L 15.75 -56.796875 L 15.75 -0.4375 Z M 12.765625 -0.4375 "/></g></g></g><g fill="#eaf2f3" fill-opacity="1"><g transform="translate(474.325729, 158.131076)"><g><path d="M 8.4375 -25.859375 C 9.582031 -10.472656 16.242188 -2.78125 28.421875 -2.78125 C 34.972656 -2.78125 41.132812 -3.957031 46.90625 -6.3125 L 48.1875 -3.53125 C 41.78125 -1.101562 35.085938 0.109375 28.109375 0.109375 C 13.078125 0.109375 5.5625 -10.148438 5.5625 -30.671875 C 6.34375 -48.617188 13.25 -57.59375 26.28125 -57.59375 L 29.171875 -57.59375 C 42.347656 -57.59375 49.113281 -50.46875 49.46875 -36.21875 C 49.46875 -29.3125 46.65625 -25.859375 41.03125 -25.859375 Z M 46.59375 -36.21875 C 46.59375 -48.40625 40.785156 -54.570312 29.171875 -54.71875 L 26.28125 -54.71875 C 14.382812 -54.71875 8.4375 -46.0625 8.4375 -28.75 L 41.03125 -28.75 C 44.738281 -28.75 46.59375 -31.238281 46.59375 -36.21875 Z M 46.59375 -36.21875 "/></g></g></g><g fill="#eaf2f3" fill-opacity="1"><g transform="translate(545.562495, 158.457602)"><g><path d="M 55.4375 -78.5 C 48.394531 -80.082031 40.742188 -80.953125 32.484375 -81.109375 C 15.898438 -81.109375 7.609375 -74.859375 7.609375 -62.359375 L 7.609375 -58.15625 C 7.984375 -51.113281 12.601562 -46.796875 21.46875 -45.203125 L 42.03125 -41.578125 C 53.46875 -39.453125 59.222656 -33.503906 59.296875 -23.734375 L 59.296875 -20.109375 C 58.617188 -6.773438 50.023438 -0.109375 33.515625 -0.109375 C 23.972656 -0.265625 14.734375 -1.097656 5.796875 -2.609375 L 6.359375 -5.796875 C 14.617188 -4.203125 23.40625 -3.332031 32.71875 -3.1875 C 48.164062 -3.1875 56.003906 -8.828125 56.234375 -20.109375 L 56.234375 -23.734375 C 56.234375 -31.691406 51.117188 -36.65625 40.890625 -38.625 L 20.5625 -42.25 C 10.488281 -44.144531 5.148438 -49.445312 4.546875 -58.15625 L 4.546875 -62.359375 C 4.546875 -76.898438 13.820312 -84.171875 32.375 -84.171875 C 39.945312 -84.097656 47.898438 -83.148438 56.234375 -81.328125 Z M 55.4375 -78.5 "/></g></g></g><g fill="#eaf2f3" fill-opacity="1"><g transform="translate(627.605289, 158.337914)"><g><path d="M 51.0625 -24.921875 C 51.0625 -8.304688 43.601562 0 28.6875 0 L 26.640625 0 C 11.929688 0 4.578125 -8.304688 4.578125 -24.921875 L 4.578125 -29.703125 C 4.578125 -46.441406 11.929688 -54.8125 26.640625 -54.8125 L 28.6875 -54.8125 C 43.601562 -54.8125 51.0625 -46.441406 51.0625 -29.703125 Z M 26.640625 -52.078125 C 13.765625 -52.078125 7.328125 -44.617188 7.328125 -29.703125 L 7.328125 -24.921875 C 7.328125 -10.140625 13.765625 -2.75 26.640625 -2.75 L 28.6875 -2.75 C 41.769531 -2.75 48.3125 -10.140625 48.3125 -24.921875 L 48.3125 -29.703125 C 48.3125 -44.617188 41.769531 -52.078125 28.6875 -52.078125 Z M 26.640625 -52.078125 "/></g></g></g><g fill="#eaf2f3" fill-opacity="1"><g transform="translate(705.07578, 156.354168)"><g><path d="M 35.09375 -51.265625 C 33.050781 -51.804688 30.742188 -52.078125 28.171875 -52.078125 C 19.828125 -52.003906 13.925781 -46.613281 10.46875 -35.90625 L 10.46875 -0.203125 L 7.734375 -0.203125 L 7.734375 -54.8125 L 10.46875 -54.8125 L 10.46875 -41.703125 C 13.925781 -50.441406 19.828125 -54.8125 28.171875 -54.8125 C 30.742188 -54.8125 33.320312 -54.472656 35.90625 -53.796875 Z M 35.09375 -51.265625 "/></g></g></g><g fill="#eaf2f3" fill-opacity="1"><g transform="translate(760.668975, 157.509441)"><g><path d="M 14.796875 -69.109375 L 14.796875 -55.015625 L 30.109375 -55.015625 L 30.109375 -52.265625 L 14.796875 -52.265625 L 14.796875 -14.703125 C 14.867188 -7.015625 17.726562 -3.171875 23.375 -3.171875 C 24.9375 -3.171875 27.046875 -3.539062 29.703125 -4.28125 L 30.421875 -1.734375 C 27.492188 -0.847656 25.113281 -0.40625 23.28125 -0.40625 C 15.789062 -0.40625 12.046875 -5.171875 12.046875 -14.703125 L 12.046875 -52.265625 L 0.8125 -52.265625 L 0.8125 -55.015625 L 12.046875 -55.015625 L 12.046875 -69.109375 Z M 14.796875 -69.109375 "/></g></g></g></svg>