<svg xmlns="http://www.w3.org/2000/svg" xmlns:xlink="http://www.w3.org/1999/xlink" width="1200" zoomAndPan="magnify" viewBox="0 0 900 449.999984" height="600" preserveAspectRatio="xMidYMid meet" version="1.0"><defs><g/><clipPath id="9f3812e87b"><path d="M 170 120 L 175.800781 120 L 175.800781 125 L 170 125 Z M 170 120 " clip-rule="nonzero"/></clipPath><clipPath id="d0a36d803a"><path d="M 192 150.058594 L 197 150.058594 L 197 156 L 192 156 Z M 192 150.058594 " clip-rule="nonzero"/></clipPath><clipPath id="12af80c99e"><path d="M 218 173 L 223.914062 173 L 223.914062 178 L 218 178 Z M 218 173 " clip-rule="nonzero"/></clipPath><clipPath id="c5d21df901"><path d="M 183.015625 244 L 189 244 L 189 249 L 183.015625 249 Z M 183.015625 244 " clip-rule="nonzero"/></clipPath><clipPath id="3710c740c2"><path d="M 40 209 L 45.980469 209 L 45.980469 214 L 40 214 Z M 40 209 " clip-rule="nonzero"/></clipPath><clipPath id="a2b05b8072"><path d="M 49 231.117188 L 54 231.117188 L 54 237 L 49 237 Z M 49 231.117188 " clip-rule="nonzero"/></clipPath><clipPath id="f6006b0e01"><path d="M 41.058594 237 L 47 237 L 47 242 L 41.058594 242 Z M 41.058594 237 " clip-rule="nonzero"/></clipPath><clipPath id="e6c4a4f600"><path d="M 85 289 L 90.914062 289 L 90.914062 294.914062 L 85 294.914062 Z M 85 289 " clip-rule="nonzero"/></clipPath></defs><path stroke-linecap="butt" transform="matrix(0.72139, -0.205175, 0.205175, 0.72139, 82.604585, 125.879801)" fill="none" stroke-linejoin="miter" d="M -0.000798659 0.502118 L 38.84008 0.502729 " stroke="#c5979d" stroke-width="1" stroke-opacity="1" stroke-miterlimit="4"/><path stroke-linecap="butt" transform="matrix(0.749986, 0.00453311, -0.00453311, 0.749986, 110.920013, 117.741502)" fill="none" stroke-linejoin="miter" d="M 0.000301633 0.500921 L 34.495724 0.500759 " stroke="#c5979d" stroke-width="1" stroke-opacity="1" stroke-miterlimit="4"/><path stroke-linecap="butt" transform="matrix(0.745836, 0.0789202, -0.0789202, 0.745836, 136.827135, 117.743583)" fill="none" stroke-linejoin="miter" d="M 0.00193584 0.500716 L 47.515753 0.500987 " stroke="#c5979d" stroke-width="1" stroke-opacity="1" stroke-miterlimit="4"/><path stroke-linecap="butt" transform="matrix(0.432051, 0.613051, -0.613051, 0.432051, 172.573054, 122.027482)" fill="none" stroke-linejoin="miter" d="M -0.00213214 0.499971 L 50.265688 0.499168 " stroke="#c5979d" stroke-width="1" stroke-opacity="1" stroke-miterlimit="4"/><path stroke-linecap="butt" transform="matrix(0.119511, 0.740417, -0.740417, 0.119511, 221.276073, 175.52984)" fill="none" stroke-linejoin="miter" d="M 0.000408483 0.499545 L 43.86812 0.500232 " stroke="#c5979d" stroke-width="1" stroke-opacity="1" stroke-miterlimit="4"/><path stroke-linecap="butt" transform="matrix(-0.536348, 0.524243, -0.524243, -0.536348, 226.411331, 208.118847)" fill="none" stroke-linejoin="miter" d="M 0.00156512 0.499871 L 73.799616 0.500961 " stroke="#c5979d" stroke-width="1" stroke-opacity="1" stroke-miterlimit="4"/><path stroke-linecap="butt" transform="matrix(-0.163765, 0.731902, -0.731902, -0.163765, 226.512215, 208.151425)" fill="none" stroke-linejoin="miter" d="M 0.00150686 0.50203 L 59.24279 0.498697 " stroke="#c5979d" stroke-width="1" stroke-opacity="1" stroke-miterlimit="4"/><path stroke-linecap="butt" transform="matrix(-0.731402, -0.165986, 0.165986, -0.731402, 121.543564, 299.849773)" fill="none" stroke-linejoin="miter" d="M 0.00193584 0.499146 L 44.896836 0.500765 " stroke="#c5979d" stroke-width="1" stroke-opacity="1" stroke-miterlimit="4"/><path stroke-linecap="butt" transform="matrix(-0.400716, 0.633977, -0.633977, -0.400716, 65.865414, 137.501634)" fill="none" stroke-linejoin="miter" d="M 0.000547061 0.502101 L 34.220138 0.499899 " stroke="#c5979d" stroke-width="1" stroke-opacity="1" stroke-miterlimit="4"/><path stroke-linecap="butt" transform="matrix(0.130593, -0.738543, 0.738543, 0.130593, 42.027325, 212.294369)" fill="none" stroke-linejoin="miter" d="M 0.000808708 0.50235 L 72.260216 0.49835 " stroke="#c5979d" stroke-width="1" stroke-opacity="1" stroke-miterlimit="4"/><path stroke-linecap="butt" transform="matrix(-0.0374021, -0.749067, 0.749067, -0.0374021, 43.299047, 239.424327)" fill="none" stroke-linejoin="miter" d="M -0.000717707 0.497688 L 36.106525 0.501465 " stroke="#c5979d" stroke-width="1" stroke-opacity="1" stroke-miterlimit="4"/><path stroke-linecap="butt" transform="matrix(-0.349263, -0.663713, 0.663713, -0.349263, 61.471689, 273.343601)" fill="none" stroke-linejoin="miter" d="M 0.000471638 0.501969 L 50.840094 0.499877 " stroke="#c5979d" stroke-width="1" stroke-opacity="1" stroke-miterlimit="4"/><path stroke-linecap="butt" transform="matrix(-0.421071, 0.620644, -0.620644, -0.421071, 69.96316, 208.061717)" fill="none" stroke-linejoin="miter" d="M 0.00078957 0.50026 L 42.313957 0.499553 " stroke="#c5979d" stroke-width="1" stroke-opacity="1" stroke-miterlimit="4"/><path stroke-linecap="butt" transform="matrix(-0.630397, 0.406324, -0.406324, -0.630397, 82.900719, 126.559649)" fill="none" stroke-linejoin="miter" d="M -0.000675249 0.496957 L 27.219041 0.499223 " stroke="#c5979d" stroke-width="1" stroke-opacity="1" stroke-miterlimit="4"/><path fill="#c5979d" d="M 85.632812 123.964844 C 85.992188 124.320312 86.265625 124.734375 86.460938 125.199219 C 86.652344 125.667969 86.75 126.152344 86.75 126.660156 C 86.75 127.164062 86.652344 127.648438 86.460938 128.117188 C 86.265625 128.585938 85.992188 128.996094 85.632812 129.355469 C 85.277344 129.710938 84.863281 129.988281 84.398438 130.179688 C 83.929688 130.375 83.445312 130.46875 82.9375 130.46875 C 82.433594 130.46875 81.945312 130.375 81.480469 130.179688 C 81.011719 129.988281 80.601562 129.710938 80.242188 129.355469 C 79.886719 128.996094 79.609375 128.585938 79.417969 128.117188 C 79.222656 127.648438 79.128906 127.164062 79.128906 126.660156 C 79.128906 126.152344 79.222656 125.667969 79.417969 125.199219 C 79.609375 124.734375 79.886719 124.320312 80.242188 123.964844 C 80.601562 123.605469 81.011719 123.332031 81.480469 123.136719 C 81.945312 122.945312 82.433594 122.847656 82.9375 122.847656 C 83.445312 122.847656 83.929688 122.945312 84.398438 123.136719 C 84.863281 123.332031 85.277344 123.605469 85.632812 123.964844 Z M 85.632812 123.964844 " fill-opacity="1" fill-rule="nonzero"/><path stroke-linecap="butt" transform="matrix(0.137483, 0.737291, -0.737291, 0.137483, 137.152417, 118.208787)" fill="none" stroke-linejoin="miter" d="M 0.0000968115 0.498139 L 43.057412 0.500403 " stroke="#c5979d" stroke-width="1" stroke-opacity="1" stroke-miterlimit="4"/><path stroke-linecap="butt" transform="matrix(0.546529, -0.513621, 0.513621, 0.546529, 142.449732, 149.744285)" fill="none" stroke-linejoin="miter" d="M 0.0022321 0.498576 L 54.088949 0.503524 " stroke="#c5979d" stroke-width="1" stroke-opacity="1" stroke-miterlimit="4"/><path stroke-linecap="butt" transform="matrix(-0.74144, -0.112991, 0.112991, -0.74144, 216.38518, 251.796835)" fill="none" stroke-linejoin="miter" d="M 0.000422182 0.500386 L 40.604093 0.497812 " stroke="#c5979d" stroke-width="1" stroke-opacity="1" stroke-miterlimit="4"/><path stroke-linecap="butt" transform="matrix(-0.0894215, 0.74465, -0.74465, -0.0894215, 70.025262, 207.896468)" fill="none" stroke-linejoin="miter" d="M -0.000163245 0.500816 L 87.724443 0.499855 " stroke="#c5979d" stroke-width="1" stroke-opacity="1" stroke-miterlimit="4"/><path stroke-linecap="butt" transform="matrix(-0.614733, -0.429655, 0.429655, -0.614733, 88.576313, 292.33905)" fill="none" stroke-linejoin="miter" d="M -0.00166697 0.501871 L 43.893819 0.500967 " stroke="#c5979d" stroke-width="1" stroke-opacity="1" stroke-miterlimit="4"/><path stroke-linecap="butt" transform="matrix(0.617798, 0.425236, -0.425236, 0.617798, 69.866744, 207.759183)" fill="none" stroke-linejoin="miter" d="M -0.00322492 0.499507 L 108.663575 0.50262 " stroke="#c5979d" stroke-width="1" stroke-opacity="1" stroke-miterlimit="4"/><path stroke-linecap="butt" transform="matrix(0.315494, 0.680414, -0.680414, 0.315494, 108.554758, 193.101153)" fill="none" stroke-linejoin="miter" d="M -0.00115136 0.499036 L 90.55703 0.499414 " stroke="#c5979d" stroke-width="1" stroke-opacity="1" stroke-miterlimit="4"/><path stroke-linecap="butt" transform="matrix(0.686317, 0.302438, -0.302438, 0.686317, 61.961174, 272.831962)" fill="none" stroke-linejoin="miter" d="M -0.00130551 0.501538 L 87.000554 0.5013 " stroke="#c5979d" stroke-width="1" stroke-opacity="1" stroke-miterlimit="4"/><path stroke-linecap="butt" transform="matrix(-0.255966, 0.704969, -0.704969, -0.255966, 137.137359, 254.404375)" fill="none" stroke-linejoin="miter" d="M 0.00106555 0.499214 L 64.132193 0.497291 " stroke="#c5979d" stroke-width="1" stroke-opacity="1" stroke-miterlimit="4"/><path stroke-linecap="butt" transform="matrix(0.745226, -0.0844879, 0.0844879, 0.745226, 121.588015, 299.111842)" fill="none" stroke-linejoin="miter" d="M -0.00177986 0.499691 L 49.799514 0.500465 " stroke="#c5979d" stroke-width="1" stroke-opacity="1" stroke-miterlimit="4"/><path stroke-linecap="butt" transform="matrix(0.588185, 0.465337, -0.465337, 0.588185, 172.154799, 120.554998)" fill="none" stroke-linejoin="miter" d="M -0.00145363 0.498712 L 57.38023 0.500967 " stroke="#c5979d" stroke-width="1" stroke-opacity="1" stroke-miterlimit="4"/><path stroke-linecap="butt" transform="matrix(0.35809, 0.658993, -0.658993, 0.35809, 206.001533, 147.369891)" fill="none" stroke-linejoin="miter" d="M 0.00205872 0.501364 L 42.54472 0.500969 " stroke="#c5979d" stroke-width="1" stroke-opacity="1" stroke-miterlimit="4"/><path stroke-linecap="butt" transform="matrix(0.675286, -0.326325, 0.326325, 0.675286, 194.195274, 152.677678)" fill="none" stroke-linejoin="miter" d="M 0.000950108 0.500909 L 16.754319 0.49839 " stroke="#c5979d" stroke-width="1" stroke-opacity="1" stroke-miterlimit="4"/><path fill="#c5979d" d="M 173.785156 200.398438 C 174.046875 200.660156 174.28125 200.945312 174.488281 201.253906 C 174.691406 201.5625 174.867188 201.886719 175.007812 202.226562 C 175.148438 202.570312 175.257812 202.921875 175.328125 203.285156 C 175.402344 203.648438 175.4375 204.015625 175.4375 204.386719 C 175.4375 204.757812 175.402344 205.121094 175.328125 205.484375 C 175.257812 205.847656 175.148438 206.203125 175.007812 206.542969 C 174.867188 206.886719 174.691406 207.210938 174.488281 207.519531 C 174.28125 207.828125 174.046875 208.109375 173.785156 208.371094 C 173.523438 208.632812 173.238281 208.867188 172.933594 209.074219 C 172.625 209.28125 172.300781 209.453125 171.957031 209.59375 C 171.613281 209.738281 171.261719 209.84375 170.898438 209.917969 C 170.535156 209.988281 170.167969 210.023438 169.800781 210.023438 C 169.429688 210.023438 169.0625 209.988281 168.699219 209.917969 C 168.335938 209.84375 167.984375 209.738281 167.640625 209.59375 C 167.300781 209.453125 166.972656 209.28125 166.667969 209.074219 C 166.359375 208.867188 166.074219 208.636719 165.8125 208.375 C 165.550781 208.109375 165.316406 207.828125 165.109375 207.519531 C 164.90625 207.210938 164.730469 206.886719 164.589844 206.542969 C 164.449219 206.203125 164.339844 205.847656 164.269531 205.484375 C 164.195312 205.121094 164.160156 204.757812 164.160156 204.386719 C 164.160156 204.015625 164.195312 203.648438 164.269531 203.285156 C 164.339844 202.921875 164.449219 202.570312 164.589844 202.226562 C 164.730469 201.886719 164.90625 201.5625 165.109375 201.253906 C 165.316406 200.945312 165.550781 200.660156 165.8125 200.398438 C 166.074219 200.136719 166.359375 199.902344 166.667969 199.699219 C 166.972656 199.492188 167.300781 199.320312 167.640625 199.175781 C 167.984375 199.035156 168.335938 198.929688 168.699219 198.855469 C 169.0625 198.785156 169.429688 198.746094 169.800781 198.746094 C 170.167969 198.746094 170.535156 198.785156 170.898438 198.855469 C 171.261719 198.929688 171.613281 199.035156 171.957031 199.175781 C 172.300781 199.320312 172.625 199.492188 172.929688 199.699219 C 173.238281 199.902344 173.523438 200.136719 173.785156 200.398438 Z M 173.785156 200.398438 " fill-opacity="1" fill-rule="nonzero"/><path fill="#c5979d" d="M 162.726562 290.914062 C 162.988281 291.175781 163.222656 291.460938 163.425781 291.769531 C 163.632812 292.078125 163.804688 292.402344 163.949219 292.746094 C 164.089844 293.085938 164.195312 293.441406 164.269531 293.800781 C 164.339844 294.164062 164.375 294.53125 164.375 294.902344 C 164.375 295.273438 164.339844 295.640625 164.269531 296.003906 C 164.195312 296.367188 164.089844 296.71875 163.949219 297.058594 C 163.804688 297.402344 163.632812 297.726562 163.425781 298.035156 C 163.222656 298.34375 162.988281 298.628906 162.726562 298.890625 C 162.464844 299.152344 162.179688 299.386719 161.871094 299.589844 C 161.5625 299.796875 161.238281 299.96875 160.894531 300.113281 C 160.554688 300.253906 160.203125 300.359375 159.839844 300.433594 C 159.476562 300.503906 159.109375 300.542969 158.738281 300.542969 C 158.367188 300.542969 158 300.503906 157.636719 300.433594 C 157.273438 300.359375 156.921875 300.253906 156.582031 300.113281 C 156.238281 299.96875 155.914062 299.796875 155.605469 299.589844 C 155.296875 299.386719 155.011719 299.152344 154.75 298.890625 C 154.488281 298.628906 154.257812 298.34375 154.050781 298.035156 C 153.84375 297.726562 153.671875 297.402344 153.527344 297.058594 C 153.386719 296.71875 153.28125 296.367188 153.207031 296.003906 C 153.136719 295.640625 153.101562 295.273438 153.101562 294.902344 C 153.101562 294.53125 153.136719 294.164062 153.207031 293.804688 C 153.28125 293.441406 153.386719 293.085938 153.527344 292.746094 C 153.671875 292.402344 153.84375 292.078125 154.050781 291.769531 C 154.253906 291.460938 154.488281 291.175781 154.75 290.914062 C 155.011719 290.652344 155.296875 290.421875 155.605469 290.214844 C 155.914062 290.007812 156.238281 289.835938 156.582031 289.695312 C 156.921875 289.550781 157.273438 289.445312 157.636719 289.371094 C 158 289.300781 158.367188 289.265625 158.738281 289.265625 C 159.109375 289.265625 159.476562 289.300781 159.839844 289.371094 C 160.203125 289.445312 160.554688 289.550781 160.894531 289.695312 C 161.238281 289.835938 161.5625 290.007812 161.871094 290.214844 C 162.179688 290.421875 162.464844 290.652344 162.726562 290.914062 Z M 162.726562 290.914062 " fill-opacity="1" fill-rule="nonzero"/><path fill="#c5979d" d="M 144.273438 147.925781 C 144.472656 148.121094 144.625 148.351562 144.734375 148.609375 C 144.839844 148.871094 144.894531 149.140625 144.894531 149.421875 C 144.894531 149.703125 144.839844 149.972656 144.734375 150.230469 C 144.625 150.492188 144.472656 150.71875 144.273438 150.917969 C 144.074219 151.117188 143.847656 151.269531 143.585938 151.375 C 143.328125 151.484375 143.058594 151.539062 142.777344 151.539062 C 142.496094 151.539062 142.226562 151.484375 141.96875 151.375 C 141.707031 151.269531 141.480469 151.117188 141.28125 150.917969 C 141.082031 150.71875 140.929688 150.492188 140.820312 150.230469 C 140.714844 149.972656 140.660156 149.703125 140.660156 149.421875 C 140.660156 149.140625 140.714844 148.871094 140.820312 148.609375 C 140.929688 148.351562 141.082031 148.121094 141.28125 147.925781 C 141.480469 147.726562 141.707031 147.574219 141.96875 147.464844 C 142.226562 147.359375 142.496094 147.304688 142.777344 147.304688 C 143.058594 147.304688 143.328125 147.359375 143.585938 147.464844 C 143.847656 147.574219 144.074219 147.726562 144.273438 147.925781 Z M 144.273438 147.925781 " fill-opacity="1" fill-rule="nonzero"/><path fill="#c5979d" d="M 138.28125 116.773438 C 138.480469 116.972656 138.632812 117.203125 138.742188 117.460938 C 138.847656 117.71875 138.902344 117.992188 138.902344 118.269531 C 138.902344 118.550781 138.847656 118.820312 138.742188 119.082031 C 138.632812 119.339844 138.480469 119.570312 138.28125 119.769531 C 138.085938 119.964844 137.855469 120.121094 137.597656 120.226562 C 137.335938 120.335938 137.066406 120.386719 136.785156 120.386719 C 136.503906 120.386719 136.234375 120.335938 135.976562 120.226562 C 135.714844 120.121094 135.488281 119.964844 135.289062 119.769531 C 135.089844 119.570312 134.9375 119.339844 134.828125 119.082031 C 134.722656 118.820312 134.667969 118.550781 134.667969 118.269531 C 134.667969 117.992188 134.722656 117.71875 134.828125 117.460938 C 134.9375 117.203125 135.089844 116.972656 135.289062 116.773438 C 135.488281 116.574219 135.714844 116.421875 135.976562 116.316406 C 136.234375 116.207031 136.503906 116.152344 136.785156 116.152344 C 137.066406 116.152344 137.335938 116.207031 137.597656 116.316406 C 137.855469 116.421875 138.085938 116.574219 138.28125 116.773438 Z M 138.28125 116.773438 " fill-opacity="1" fill-rule="nonzero"/><path fill="#c5979d" d="M 112.832031 116.734375 C 113.035156 116.9375 113.191406 117.171875 113.300781 117.4375 C 113.414062 117.703125 113.46875 117.980469 113.46875 118.269531 C 113.46875 118.554688 113.414062 118.832031 113.300781 119.097656 C 113.191406 119.363281 113.035156 119.597656 112.832031 119.804688 C 112.628906 120.007812 112.394531 120.164062 112.128906 120.273438 C 111.863281 120.382812 111.585938 120.4375 111.296875 120.4375 C 111.007812 120.4375 110.730469 120.382812 110.464844 120.273438 C 110.199219 120.164062 109.964844 120.007812 109.761719 119.804688 C 109.558594 119.597656 109.402344 119.363281 109.292969 119.097656 C 109.179688 118.832031 109.125 118.554688 109.125 118.269531 C 109.125 117.980469 109.179688 117.703125 109.292969 117.4375 C 109.402344 117.171875 109.558594 116.9375 109.761719 116.734375 C 109.964844 116.53125 110.199219 116.371094 110.464844 116.261719 C 110.730469 116.152344 111.007812 116.097656 111.296875 116.097656 C 111.585938 116.097656 111.863281 116.152344 112.128906 116.261719 C 112.394531 116.371094 112.628906 116.53125 112.832031 116.734375 Z M 112.832031 116.734375 " fill-opacity="1" fill-rule="nonzero"/><g clip-path="url(#9f3812e87b)"><path fill="#c5979d" d="M 174.40625 120.699219 C 174.609375 120.902344 174.765625 121.136719 174.875 121.402344 C 174.988281 121.667969 175.042969 121.945312 175.042969 122.234375 C 175.042969 122.523438 174.988281 122.800781 174.878906 123.066406 C 174.765625 123.332031 174.609375 123.566406 174.40625 123.769531 C 174.203125 123.972656 173.96875 124.128906 173.703125 124.238281 C 173.4375 124.351562 173.160156 124.40625 172.871094 124.40625 C 172.582031 124.40625 172.304688 124.351562 172.039062 124.238281 C 171.773438 124.128906 171.539062 123.972656 171.335938 123.769531 C 171.132812 123.566406 170.976562 123.332031 170.867188 123.066406 C 170.753906 122.800781 170.699219 122.523438 170.699219 122.234375 C 170.699219 121.945312 170.753906 121.667969 170.867188 121.402344 C 170.976562 121.136719 171.132812 120.902344 171.335938 120.699219 C 171.539062 120.496094 171.773438 120.339844 172.039062 120.230469 C 172.304688 120.117188 172.582031 120.0625 172.871094 120.0625 C 173.160156 120.0625 173.4375 120.117188 173.703125 120.230469 C 173.96875 120.339844 174.203125 120.496094 174.40625 120.699219 Z M 174.40625 120.699219 " fill-opacity="1" fill-rule="nonzero"/></g><path fill="#c5979d" d="M 206.289062 146.050781 C 206.488281 146.25 206.640625 146.476562 206.75 146.738281 C 206.855469 146.996094 206.910156 147.265625 206.910156 147.546875 C 206.910156 147.828125 206.855469 148.097656 206.75 148.355469 C 206.640625 148.617188 206.488281 148.84375 206.289062 149.042969 C 206.09375 149.242188 205.863281 149.394531 205.605469 149.503906 C 205.34375 149.609375 205.074219 149.664062 204.792969 149.664062 C 204.511719 149.664062 204.242188 149.609375 203.984375 149.503906 C 203.722656 149.394531 203.496094 149.242188 203.296875 149.042969 C 203.097656 148.84375 202.945312 148.617188 202.839844 148.355469 C 202.730469 148.097656 202.675781 147.828125 202.675781 147.546875 C 202.675781 147.265625 202.730469 146.996094 202.839844 146.738281 C 202.945312 146.476562 203.097656 146.25 203.296875 146.050781 C 203.496094 145.851562 203.722656 145.699219 203.984375 145.589844 C 204.242188 145.484375 204.511719 145.429688 204.792969 145.429688 C 205.074219 145.429688 205.34375 145.484375 205.605469 145.589844 C 205.863281 145.699219 206.09375 145.851562 206.289062 146.050781 Z M 206.289062 146.050781 " fill-opacity="1" fill-rule="nonzero"/><g clip-path="url(#d0a36d803a)"><path fill="#c5979d" d="M 195.855469 151.554688 C 196.050781 151.753906 196.203125 151.980469 196.3125 152.242188 C 196.421875 152.5 196.472656 152.769531 196.472656 153.050781 C 196.472656 153.332031 196.421875 153.601562 196.3125 153.863281 C 196.207031 154.121094 196.050781 154.351562 195.855469 154.550781 C 195.65625 154.746094 195.425781 154.898438 195.167969 155.007812 C 194.90625 155.113281 194.636719 155.167969 194.355469 155.167969 C 194.074219 155.167969 193.804688 155.113281 193.546875 155.007812 C 193.289062 154.898438 193.058594 154.746094 192.859375 154.550781 C 192.660156 154.351562 192.507812 154.121094 192.402344 153.863281 C 192.292969 153.601562 192.238281 153.332031 192.238281 153.050781 C 192.238281 152.769531 192.292969 152.5 192.402344 152.242188 C 192.507812 151.984375 192.660156 151.753906 192.859375 151.554688 C 193.058594 151.355469 193.289062 151.203125 193.546875 151.097656 C 193.804688 150.988281 194.074219 150.933594 194.355469 150.933594 C 194.636719 150.933594 194.90625 150.988281 195.167969 151.097656 C 195.425781 151.203125 195.65625 151.355469 195.855469 151.554688 Z M 195.855469 151.554688 " fill-opacity="1" fill-rule="nonzero"/></g><g clip-path="url(#12af80c99e)"><path fill="#c5979d" d="M 222.402344 174.089844 C 222.601562 174.285156 222.753906 174.515625 222.863281 174.773438 C 222.96875 175.035156 223.023438 175.304688 223.023438 175.585938 C 223.023438 175.867188 222.96875 176.136719 222.863281 176.394531 C 222.753906 176.65625 222.601562 176.882812 222.402344 177.082031 C 222.203125 177.28125 221.976562 177.433594 221.714844 177.542969 C 221.457031 177.648438 221.1875 177.703125 220.90625 177.703125 C 220.625 177.703125 220.355469 177.648438 220.097656 177.542969 C 219.835938 177.433594 219.609375 177.28125 219.410156 177.082031 C 219.210938 176.882812 219.058594 176.65625 218.949219 176.394531 C 218.84375 176.136719 218.789062 175.867188 218.789062 175.585938 C 218.789062 175.304688 218.84375 175.035156 218.949219 174.773438 C 219.058594 174.515625 219.210938 174.285156 219.410156 174.089844 C 219.609375 173.890625 219.835938 173.738281 220.097656 173.628906 C 220.355469 173.523438 220.625 173.46875 220.90625 173.46875 C 221.1875 173.46875 221.457031 173.523438 221.714844 173.628906 C 221.976562 173.738281 222.203125 173.890625 222.402344 174.089844 Z M 222.402344 174.089844 " fill-opacity="1" fill-rule="nonzero"/></g><path fill="#c5979d" d="M 94.84375 152.714844 C 95.199219 153.074219 95.476562 153.484375 95.667969 153.953125 C 95.863281 154.417969 95.957031 154.90625 95.957031 155.410156 C 95.957031 155.914062 95.863281 156.402344 95.667969 156.867188 C 95.476562 157.335938 95.199219 157.746094 94.84375 158.105469 C 94.484375 158.460938 94.074219 158.738281 93.605469 158.933594 C 93.140625 159.125 92.652344 159.222656 92.148438 159.222656 C 91.640625 159.222656 91.15625 159.125 90.6875 158.933594 C 90.222656 158.738281 89.808594 158.464844 89.453125 158.105469 C 89.09375 157.75 88.820312 157.335938 88.625 156.867188 C 88.433594 156.402344 88.335938 155.914062 88.335938 155.410156 C 88.335938 154.90625 88.433594 154.417969 88.625 153.953125 C 88.820312 153.484375 89.09375 153.074219 89.453125 152.714844 C 89.808594 152.359375 90.222656 152.082031 90.6875 151.890625 C 91.15625 151.695312 91.640625 151.597656 92.148438 151.597656 C 92.652344 151.597656 93.140625 151.695312 93.605469 151.890625 C 94.074219 152.082031 94.484375 152.359375 94.84375 152.714844 Z M 94.84375 152.714844 " fill-opacity="1" fill-rule="nonzero"/><path fill="#c5979d" d="M 139.480469 251.574219 C 139.835938 251.933594 140.113281 252.34375 140.304688 252.8125 C 140.5 253.28125 140.59375 253.765625 140.59375 254.269531 C 140.59375 254.777344 140.5 255.261719 140.304688 255.730469 C 140.113281 256.195312 139.835938 256.609375 139.480469 256.964844 C 139.121094 257.324219 138.710938 257.597656 138.242188 257.792969 C 137.777344 257.984375 137.289062 258.082031 136.785156 258.082031 C 136.277344 258.082031 135.792969 257.984375 135.324219 257.792969 C 134.859375 257.597656 134.445312 257.324219 134.089844 256.964844 C 133.730469 256.609375 133.457031 256.195312 133.261719 255.730469 C 133.070312 255.261719 132.972656 254.777344 132.972656 254.269531 C 132.972656 253.765625 133.070312 253.28125 133.261719 252.8125 C 133.457031 252.34375 133.730469 251.933594 134.089844 251.574219 C 134.445312 251.21875 134.859375 250.941406 135.324219 250.75 C 135.792969 250.554688 136.277344 250.460938 136.785156 250.460938 C 137.289062 250.460938 137.777344 250.554688 138.242188 250.75 C 138.710938 250.941406 139.121094 251.21875 139.480469 251.574219 Z M 139.480469 251.574219 " fill-opacity="1" fill-rule="nonzero"/><path fill="#c5979d" d="M 227.644531 206.351562 C 227.84375 206.550781 227.996094 206.777344 228.105469 207.039062 C 228.210938 207.296875 228.265625 207.566406 228.265625 207.847656 C 228.265625 208.128906 228.210938 208.398438 228.105469 208.660156 C 227.996094 208.917969 227.84375 209.148438 227.644531 209.34375 C 227.445312 209.542969 227.21875 209.695312 226.957031 209.804688 C 226.699219 209.910156 226.429688 209.964844 226.148438 209.964844 C 225.867188 209.964844 225.597656 209.910156 225.339844 209.804688 C 225.078125 209.695312 224.851562 209.542969 224.652344 209.34375 C 224.453125 209.148438 224.300781 208.917969 224.191406 208.660156 C 224.085938 208.398438 224.03125 208.128906 224.03125 207.847656 C 224.03125 207.566406 224.085938 207.296875 224.191406 207.039062 C 224.300781 206.777344 224.453125 206.550781 224.652344 206.351562 C 224.851562 206.152344 225.078125 206 225.339844 205.894531 C 225.597656 205.785156 225.867188 205.730469 226.148438 205.730469 C 226.429688 205.730469 226.699219 205.785156 226.957031 205.894531 C 227.21875 206 227.445312 206.152344 227.644531 206.351562 Z M 227.644531 206.351562 " fill-opacity="1" fill-rule="nonzero"/><path fill="#c5979d" d="M 217.945312 250.378906 C 218.140625 250.578125 218.292969 250.804688 218.402344 251.066406 C 218.507812 251.324219 218.5625 251.59375 218.5625 251.875 C 218.5625 252.15625 218.507812 252.425781 218.402344 252.683594 C 218.292969 252.945312 218.140625 253.171875 217.945312 253.371094 C 217.746094 253.570312 217.515625 253.722656 217.257812 253.832031 C 216.996094 253.9375 216.726562 253.992188 216.445312 253.992188 C 216.164062 253.992188 215.894531 253.9375 215.636719 253.832031 C 215.378906 253.722656 215.148438 253.570312 214.949219 253.371094 C 214.75 253.171875 214.597656 252.945312 214.492188 252.683594 C 214.382812 252.425781 214.328125 252.15625 214.328125 251.875 C 214.328125 251.59375 214.382812 251.324219 214.492188 251.066406 C 214.597656 250.804688 214.75 250.578125 214.949219 250.378906 C 215.148438 250.179688 215.378906 250.027344 215.636719 249.917969 C 215.894531 249.8125 216.164062 249.757812 216.445312 249.757812 C 216.726562 249.757812 216.996094 249.8125 217.257812 249.917969 C 217.515625 250.027344 217.746094 250.179688 217.945312 250.378906 Z M 217.945312 250.378906 " fill-opacity="1" fill-rule="nonzero"/><path fill="#c5979d" d="M 122.261719 297.984375 C 122.460938 298.183594 122.613281 298.414062 122.722656 298.671875 C 122.828125 298.933594 122.882812 299.203125 122.882812 299.484375 C 122.882812 299.761719 122.828125 300.035156 122.722656 300.292969 C 122.613281 300.550781 122.460938 300.78125 122.261719 300.980469 C 122.066406 301.179688 121.835938 301.332031 121.578125 301.4375 C 121.316406 301.546875 121.046875 301.601562 120.765625 301.601562 C 120.484375 301.601562 120.214844 301.546875 119.957031 301.4375 C 119.695312 301.332031 119.46875 301.179688 119.269531 300.980469 C 119.070312 300.78125 118.917969 300.550781 118.8125 300.292969 C 118.703125 300.035156 118.648438 299.761719 118.648438 299.484375 C 118.648438 299.203125 118.703125 298.933594 118.8125 298.671875 C 118.917969 298.414062 119.070312 298.183594 119.269531 297.984375 C 119.46875 297.789062 119.695312 297.632812 119.957031 297.527344 C 120.214844 297.417969 120.484375 297.367188 120.765625 297.367188 C 121.046875 297.367188 121.316406 297.417969 121.578125 297.527344 C 121.835938 297.632812 122.066406 297.789062 122.261719 297.984375 Z M 122.261719 297.984375 " fill-opacity="1" fill-rule="nonzero"/><path stroke-linecap="butt" transform="matrix(-0.727253, 0.18331, -0.18331, -0.727253, 136.877276, 254.638339)" fill="none" stroke-linejoin="miter" d="M 0.000185484 0.501799 L 103.095709 0.50183 " stroke="#c5979d" stroke-width="1" stroke-opacity="1" stroke-miterlimit="4"/><path stroke-linecap="butt" transform="matrix(0.33309, -0.671975, 0.671975, 0.33309, 166.378847, 207.897157)" fill="none" stroke-linejoin="miter" d="M 0.0014414 0.4993 L 81.867641 0.500318 " stroke="#c5979d" stroke-width="1" stroke-opacity="1" stroke-miterlimit="4"/><path stroke-linecap="butt" transform="matrix(0.74414, -0.093575, 0.093575, 0.74414, 42.353238, 211.121396)" fill="none" stroke-linejoin="miter" d="M -0.00188795 0.498045 L 36.627777 0.500517 " stroke="#c5979d" stroke-width="1" stroke-opacity="1" stroke-miterlimit="4"/><path stroke-linecap="butt" transform="matrix(0.661038, -0.3543, 0.3543, 0.661038, 160.023724, 294.571326)" fill="none" stroke-linejoin="miter" d="M -0.00225891 0.499544 L 51.674015 0.499983 " stroke="#c5979d" stroke-width="1" stroke-opacity="1" stroke-miterlimit="4"/><path fill="#c5979d" d="M 195.855469 274.671875 C 196.050781 274.867188 196.203125 275.097656 196.3125 275.355469 C 196.421875 275.617188 196.472656 275.886719 196.472656 276.167969 C 196.472656 276.449219 196.421875 276.71875 196.3125 276.976562 C 196.207031 277.238281 196.050781 277.464844 195.855469 277.664062 C 195.65625 277.863281 195.425781 278.015625 195.167969 278.121094 C 194.90625 278.230469 194.636719 278.285156 194.355469 278.285156 C 194.074219 278.285156 193.804688 278.230469 193.546875 278.121094 C 193.289062 278.015625 193.058594 277.863281 192.859375 277.664062 C 192.660156 277.464844 192.507812 277.238281 192.402344 276.976562 C 192.292969 276.71875 192.238281 276.449219 192.238281 276.167969 C 192.238281 275.886719 192.292969 275.617188 192.402344 275.355469 C 192.507812 275.097656 192.660156 274.867188 192.859375 274.671875 C 193.058594 274.472656 193.289062 274.320312 193.546875 274.210938 C 193.804688 274.105469 194.074219 274.050781 194.355469 274.050781 C 194.636719 274.050781 194.90625 274.105469 195.167969 274.210938 C 195.425781 274.320312 195.65625 274.472656 195.855469 274.671875 Z M 195.855469 274.671875 " fill-opacity="1" fill-rule="nonzero"/><path stroke-linecap="butt" transform="matrix(0.496151, -0.562436, 0.562436, 0.496151, 194.253371, 276.01615)" fill="none" stroke-linejoin="miter" d="M -0.000899131 0.501802 L 44.161888 0.499578 " stroke="#c5979d" stroke-width="1" stroke-opacity="1" stroke-miterlimit="4"/><path stroke-linecap="butt" transform="matrix(0.74794, 0.0555471, -0.0555471, 0.74794, 142.735404, 149.048967)" fill="none" stroke-linejoin="miter" d="M -0.000902123 0.498647 L 66.885876 0.497951 " stroke="#c5979d" stroke-width="1" stroke-opacity="1" stroke-miterlimit="4"/><path stroke-linecap="butt" transform="matrix(0.378362, 0.647567, -0.647567, 0.378362, 194.307217, 152.830315)" fill="none" stroke-linejoin="miter" d="M 0.000673551 0.49894 L 85.01169 0.500231 " stroke="#c5979d" stroke-width="1" stroke-opacity="1" stroke-miterlimit="4"/><path stroke-linecap="butt" transform="matrix(-0.748238, -0.0513864, 0.0513864, -0.748238, 226.117117, 208.224065)" fill="none" stroke-linejoin="miter" d="M -0.00243682 0.498008 L 79.434245 0.498093 " stroke="#c5979d" stroke-width="1" stroke-opacity="1" stroke-miterlimit="4"/><path stroke-linecap="butt" transform="matrix(0.574737, 0.481848, -0.481848, 0.574737, 194.225099, 152.732155)" fill="none" stroke-linejoin="miter" d="M 0.000211253 0.499836 L 46.841912 0.49935 " stroke="#c5979d" stroke-width="1" stroke-opacity="1" stroke-miterlimit="4"/><g clip-path="url(#c5d21df901)"><path fill="#c5979d" d="M 187.503906 245.039062 C 187.703125 245.238281 187.855469 245.46875 187.964844 245.726562 C 188.070312 245.984375 188.125 246.257812 188.125 246.535156 C 188.125 246.816406 188.070312 247.085938 187.964844 247.347656 C 187.855469 247.605469 187.703125 247.835938 187.503906 248.035156 C 187.304688 248.230469 187.078125 248.386719 186.816406 248.492188 C 186.558594 248.601562 186.289062 248.652344 186.007812 248.652344 C 185.726562 248.652344 185.457031 248.601562 185.199219 248.492188 C 184.9375 248.386719 184.710938 248.230469 184.511719 248.035156 C 184.3125 247.835938 184.160156 247.605469 184.050781 247.347656 C 183.945312 247.085938 183.890625 246.816406 183.890625 246.535156 C 183.890625 246.257812 183.945312 245.984375 184.050781 245.726562 C 184.160156 245.46875 184.3125 245.238281 184.511719 245.039062 C 184.710938 244.839844 184.9375 244.6875 185.199219 244.582031 C 185.457031 244.472656 185.726562 244.417969 186.007812 244.417969 C 186.289062 244.417969 186.558594 244.472656 186.816406 244.582031 C 187.078125 244.6875 187.304688 244.839844 187.503906 245.039062 Z M 187.503906 245.039062 " fill-opacity="1" fill-rule="nonzero"/></g><path stroke-linecap="butt" transform="matrix(0.422107, -0.61994, 0.61994, 0.422107, 136.47733, 254.062684)" fill="none" stroke-linejoin="miter" d="M 0.00165335 0.501717 L 83.23665 0.499642 " stroke="#c5979d" stroke-width="1" stroke-opacity="1" stroke-miterlimit="4"/><path stroke-linecap="butt" transform="matrix(0.267781, 0.700566, -0.700566, 0.267781, 170.150437, 202.540794)" fill="none" stroke-linejoin="miter" d="M 0.00166507 0.49974 L 62.612618 0.500304 " stroke="#c5979d" stroke-width="1" stroke-opacity="1" stroke-miterlimit="4"/><path stroke-linecap="butt" transform="matrix(0.741771, -0.110795, 0.110795, 0.741771, 136.73227, 253.903485)" fill="none" stroke-linejoin="miter" d="M 0.00202272 0.499044 L 67.11296 0.5017 " stroke="#c5979d" stroke-width="1" stroke-opacity="1" stroke-miterlimit="4"/><path stroke-linecap="butt" transform="matrix(0.739202, 0.126811, -0.126811, 0.739202, 107.906141, 192.862339)" fill="none" stroke-linejoin="miter" d="M 0.00100112 0.497839 L 87.976004 0.497889 " stroke="#c5979d" stroke-width="1" stroke-opacity="1" stroke-miterlimit="4"/><path stroke-linecap="butt" transform="matrix(0.470955, -0.583696, 0.583696, 0.470955, 107.548923, 192.991655)" fill="none" stroke-linejoin="miter" d="M -0.00018439 0.49856 L 74.031717 0.501075 " stroke="#c5979d" stroke-width="1" stroke-opacity="1" stroke-miterlimit="4"/><path stroke-linecap="butt" transform="matrix(0.336148, 0.670451, -0.670451, 0.336148, 143.041925, 149.630247)" fill="none" stroke-linejoin="miter" d="M -0.00152473 0.498741 L 86.909372 0.498801 " stroke="#c5979d" stroke-width="1" stroke-opacity="1" stroke-miterlimit="4"/><path stroke-linecap="butt" transform="matrix(0.376036, 0.64892, -0.64892, 0.376036, 137.109322, 254.689053)" fill="none" stroke-linejoin="miter" d="M 0.00231374 0.500888 L 62.264381 0.498893 " stroke="#c5979d" stroke-width="1" stroke-opacity="1" stroke-miterlimit="4"/><path stroke-linecap="butt" transform="matrix(-0.37361, 0.650319, -0.650319, -0.37361, 186.885237, 247.030615)" fill="none" stroke-linejoin="miter" d="M 0.000915844 0.501755 L 74.48398 0.502519 " stroke="#c5979d" stroke-width="1" stroke-opacity="1" stroke-miterlimit="4"/><path stroke-linecap="butt" transform="matrix(0.597158, -0.453764, 0.453764, 0.597158, 158.512811, 294.975827)" fill="none" stroke-linejoin="miter" d="M -0.000718102 0.497833 L 96.637622 0.503499 " stroke="#c5979d" stroke-width="1" stroke-opacity="1" stroke-miterlimit="4"/><path stroke-linecap="butt" transform="matrix(-0.747876, 0.0564067, -0.0564067, -0.747876, 90.92982, 156.423329)" fill="none" stroke-linejoin="miter" d="M -0.000827756 0.498078 L 52.235544 0.499638 " stroke="#c5979d" stroke-width="1" stroke-opacity="1" stroke-miterlimit="4"/><path stroke-linecap="butt" transform="matrix(-0.228239, -0.714428, 0.714428, -0.228239, 93.151627, 158.812562)" fill="none" stroke-linejoin="miter" d="M -0.000568822 0.498379 L 46.327135 0.497783 " stroke="#c5979d" stroke-width="1" stroke-opacity="1" stroke-miterlimit="4"/><path stroke-linecap="butt" transform="matrix(-0.516841, 0.543485, -0.543485, -0.516841, 83.207309, 126.502872)" fill="none" stroke-linejoin="miter" d="M -0.000189545 0.496623 L 59.728636 0.498102 " stroke="#c5979d" stroke-width="1" stroke-opacity="1" stroke-miterlimit="4"/><path stroke-linecap="butt" transform="matrix(-0.742564, 0.105353, -0.105353, -0.742564, 142.751578, 149.794472)" fill="none" stroke-linejoin="miter" d="M -0.00066484 0.501676 L 69.806277 0.500165 " stroke="#c5979d" stroke-width="1" stroke-opacity="1" stroke-miterlimit="4"/><path stroke-linecap="butt" transform="matrix(0.27785, 0.696634, -0.696634, 0.27785, 93.863015, 155.276561)" fill="none" stroke-linejoin="miter" d="M -0.00130469 0.498149 L 54.287536 0.501183 " stroke="#c5979d" stroke-width="1" stroke-opacity="1" stroke-miterlimit="4"/><path stroke-linecap="butt" transform="matrix(-0.280025, 0.695763, -0.695763, -0.280025, 92.130244, 153.214661)" fill="none" stroke-linejoin="miter" d="M 0.0000228858 0.50159 L 79.043553 0.499608 " stroke="#c5979d" stroke-width="1" stroke-opacity="1" stroke-miterlimit="4"/><path stroke-linecap="butt" transform="matrix(-0.700284, 0.268518, -0.268518, -0.700284, 108.35924, 193.626561)" fill="none" stroke-linejoin="miter" d="M -0.00152751 0.498093 L 55.08123 0.500447 " stroke="#c5979d" stroke-width="1" stroke-opacity="1" stroke-miterlimit="4"/><path stroke-linecap="butt" transform="matrix(-0.25299, -0.706042, 0.706042, -0.25299, 69.30136, 208.192498)" fill="none" stroke-linejoin="miter" d="M -0.00134673 0.502165 L 69.500515 0.49842 " stroke="#c5979d" stroke-width="1" stroke-opacity="1" stroke-miterlimit="4"/><path stroke-linecap="butt" transform="matrix(-0.300424, -0.687201, 0.687201, -0.300424, 51.488628, 234.260401)" fill="none" stroke-linejoin="miter" d="M 0.00110017 0.500193 L 31.65088 0.500965 " stroke="#c5979d" stroke-width="1" stroke-opacity="1" stroke-miterlimit="4"/><path stroke-linecap="butt" transform="matrix(-0.185552, -0.726684, 0.726684, -0.185552, 61.44664, 273.265584)" fill="none" stroke-linejoin="miter" d="M 0.00166374 0.498514 L 53.750511 0.499283 " stroke="#c5979d" stroke-width="1" stroke-opacity="1" stroke-miterlimit="4"/><path stroke-linecap="butt" transform="matrix(0.284473, -0.693956, 0.693956, 0.284473, 39.949715, 187.002965)" fill="none" stroke-linejoin="miter" d="M 0.000918522 0.499885 L 40.563292 0.500104 " stroke="#c5979d" stroke-width="1" stroke-opacity="1" stroke-miterlimit="4"/><path stroke-linecap="butt" transform="matrix(0.336947, -0.67005, 0.67005, 0.336947, 93.178881, 152.898475)" fill="none" stroke-linejoin="miter" d="M 0.00167593 0.501723 L 52.665868 0.497475 " stroke="#c5979d" stroke-width="1" stroke-opacity="1" stroke-miterlimit="4"/><path stroke-linecap="butt" transform="matrix(-0.0589691, -0.747678, 0.747678, -0.0589691, 41.657701, 212.292377)" fill="none" stroke-linejoin="miter" d="M 0.00159059 0.499737 L 34.859416 0.500871 " stroke="#c5979d" stroke-width="1" stroke-opacity="1" stroke-miterlimit="4"/><path stroke-linecap="butt" transform="matrix(-0.530369, -0.530291, 0.530291, -0.530369, 142.441383, 150.32281)" fill="none" stroke-linejoin="miter" d="M -0.00138683 0.499561 L 59.936966 0.500251 " stroke="#c5979d" stroke-width="1" stroke-opacity="1" stroke-miterlimit="4"/><path fill="#c5979d" d="M 66.300781 135.117188 C 66.5 135.316406 66.652344 135.542969 66.761719 135.804688 C 66.867188 136.0625 66.921875 136.332031 66.921875 136.613281 C 66.921875 136.894531 66.867188 137.164062 66.761719 137.421875 C 66.652344 137.683594 66.5 137.910156 66.300781 138.109375 C 66.101562 138.308594 65.875 138.460938 65.613281 138.570312 C 65.355469 138.675781 65.085938 138.730469 64.804688 138.730469 C 64.523438 138.730469 64.253906 138.675781 63.992188 138.570312 C 63.734375 138.460938 63.503906 138.308594 63.308594 138.109375 C 63.109375 137.910156 62.957031 137.683594 62.847656 137.421875 C 62.742188 137.164062 62.6875 136.894531 62.6875 136.613281 C 62.6875 136.332031 62.742188 136.0625 62.847656 135.804688 C 62.957031 135.542969 63.109375 135.316406 63.308594 135.117188 C 63.503906 134.917969 63.734375 134.765625 63.992188 134.65625 C 64.253906 134.550781 64.523438 134.496094 64.804688 134.496094 C 65.085938 134.496094 65.355469 134.550781 65.613281 134.65625 C 65.875 134.765625 66.101562 134.917969 66.300781 135.117188 Z M 66.300781 135.117188 " fill-opacity="1" fill-rule="nonzero"/><path fill="#c5979d" d="M 53.332031 158.273438 C 53.53125 158.472656 53.683594 158.703125 53.789062 158.960938 C 53.898438 159.21875 53.953125 159.488281 53.953125 159.769531 C 53.953125 160.050781 53.898438 160.320312 53.789062 160.582031 C 53.683594 160.839844 53.53125 161.070312 53.332031 161.269531 C 53.132812 161.464844 52.90625 161.621094 52.644531 161.726562 C 52.386719 161.835938 52.117188 161.886719 51.835938 161.886719 C 51.554688 161.886719 51.285156 161.835938 51.023438 161.726562 C 50.765625 161.621094 50.535156 161.464844 50.339844 161.269531 C 50.140625 161.070312 49.988281 160.839844 49.878906 160.582031 C 49.773438 160.320312 49.71875 160.050781 49.71875 159.769531 C 49.71875 159.492188 49.773438 159.21875 49.878906 158.960938 C 49.988281 158.703125 50.140625 158.472656 50.339844 158.273438 C 50.535156 158.074219 50.765625 157.921875 51.023438 157.816406 C 51.285156 157.707031 51.554688 157.652344 51.835938 157.652344 C 52.117188 157.652344 52.386719 157.707031 52.644531 157.816406 C 52.90625 157.921875 53.132812 158.074219 53.332031 158.273438 Z M 53.332031 158.273438 " fill-opacity="1" fill-rule="nonzero"/><path fill="#c5979d" d="M 41.792969 184.707031 C 41.992188 184.90625 42.144531 185.132812 42.25 185.394531 C 42.359375 185.652344 42.414062 185.921875 42.414062 186.203125 C 42.414062 186.484375 42.359375 186.753906 42.25 187.015625 C 42.144531 187.273438 41.992188 187.503906 41.792969 187.699219 C 41.59375 187.898438 41.363281 188.050781 41.105469 188.160156 C 40.847656 188.265625 40.574219 188.320312 40.296875 188.320312 C 40.015625 188.320312 39.746094 188.265625 39.484375 188.160156 C 39.226562 188.050781 38.996094 187.898438 38.796875 187.699219 C 38.601562 187.503906 38.445312 187.273438 38.339844 187.015625 C 38.230469 186.753906 38.179688 186.484375 38.179688 186.203125 C 38.179688 185.921875 38.230469 185.652344 38.339844 185.394531 C 38.445312 185.132812 38.601562 184.90625 38.796875 184.707031 C 38.996094 184.507812 39.226562 184.355469 39.484375 184.246094 C 39.746094 184.140625 40.015625 184.085938 40.296875 184.085938 C 40.574219 184.085938 40.847656 184.140625 41.105469 184.246094 C 41.363281 184.355469 41.59375 184.507812 41.792969 184.707031 Z M 41.792969 184.707031 " fill-opacity="1" fill-rule="nonzero"/><g clip-path="url(#3710c740c2)"><path fill="#c5979d" d="M 44.472656 209.996094 C 44.671875 210.191406 44.824219 210.421875 44.929688 210.679688 C 45.039062 210.941406 45.09375 211.210938 45.09375 211.492188 C 45.09375 211.773438 45.039062 212.042969 44.929688 212.300781 C 44.824219 212.5625 44.671875 212.789062 44.472656 212.988281 C 44.273438 213.1875 44.046875 213.339844 43.785156 213.449219 C 43.527344 213.554688 43.257812 213.609375 42.976562 213.609375 C 42.695312 213.609375 42.425781 213.554688 42.164062 213.449219 C 41.90625 213.339844 41.675781 213.1875 41.480469 212.988281 C 41.28125 212.789062 41.128906 212.5625 41.019531 212.300781 C 40.914062 212.042969 40.859375 211.773438 40.859375 211.492188 C 40.859375 211.210938 40.914062 210.941406 41.019531 210.679688 C 41.128906 210.421875 41.28125 210.191406 41.480469 209.996094 C 41.675781 209.796875 41.90625 209.644531 42.164062 209.535156 C 42.425781 209.429688 42.695312 209.375 42.976562 209.375 C 43.257812 209.375 43.527344 209.429688 43.785156 209.535156 C 44.046875 209.644531 44.273438 209.796875 44.472656 209.996094 Z M 44.472656 209.996094 " fill-opacity="1" fill-rule="nonzero"/></g><path fill="#c5979d" d="M 72.828125 205.800781 C 73.183594 206.15625 73.460938 206.570312 73.652344 207.035156 C 73.847656 207.503906 73.945312 207.988281 73.945312 208.496094 C 73.945312 209 73.847656 209.484375 73.652344 209.953125 C 73.460938 210.417969 73.183594 210.832031 72.828125 211.191406 C 72.46875 211.546875 72.058594 211.824219 71.589844 212.015625 C 71.125 212.210938 70.636719 212.304688 70.132812 212.304688 C 69.625 212.304688 69.140625 212.210938 68.671875 212.015625 C 68.207031 211.824219 67.792969 211.546875 67.4375 211.191406 C 67.078125 210.832031 66.804688 210.421875 66.609375 209.953125 C 66.417969 209.484375 66.320312 209 66.320312 208.496094 C 66.320312 207.988281 66.417969 207.503906 66.609375 207.035156 C 66.804688 206.570312 67.078125 206.15625 67.4375 205.800781 C 67.792969 205.441406 68.207031 205.167969 68.671875 204.972656 C 69.140625 204.78125 69.625 204.683594 70.132812 204.683594 C 70.636719 204.683594 71.125 204.78125 71.589844 204.972656 C 72.058594 205.167969 72.46875 205.441406 72.828125 205.800781 Z M 72.828125 205.800781 " fill-opacity="1" fill-rule="nonzero"/><g clip-path="url(#a2b05b8072)"><path fill="#c5979d" d="M 53.332031 232.613281 C 53.53125 232.8125 53.683594 233.042969 53.789062 233.300781 C 53.898438 233.5625 53.953125 233.832031 53.953125 234.113281 C 53.953125 234.390625 53.898438 234.664062 53.789062 234.921875 C 53.683594 235.179688 53.53125 235.410156 53.332031 235.609375 C 53.132812 235.808594 52.90625 235.960938 52.644531 236.066406 C 52.386719 236.175781 52.117188 236.226562 51.835938 236.226562 C 51.554688 236.226562 51.285156 236.175781 51.023438 236.066406 C 50.765625 235.960938 50.535156 235.808594 50.339844 235.609375 C 50.140625 235.410156 49.988281 235.179688 49.878906 234.921875 C 49.773438 234.664062 49.71875 234.390625 49.71875 234.113281 C 49.71875 233.832031 49.773438 233.5625 49.878906 233.300781 C 49.988281 233.042969 50.140625 232.8125 50.339844 232.613281 C 50.535156 232.417969 50.765625 232.261719 51.023438 232.15625 C 51.285156 232.046875 51.554688 231.996094 51.835938 231.996094 C 52.117188 231.996094 52.386719 232.046875 52.644531 232.15625 C 52.90625 232.261719 53.132812 232.414062 53.332031 232.613281 Z M 53.332031 232.613281 " fill-opacity="1" fill-rule="nonzero"/></g><g clip-path="url(#f6006b0e01)"><path fill="#c5979d" d="M 45.546875 237.914062 C 45.746094 238.109375 45.898438 238.339844 46.007812 238.597656 C 46.113281 238.859375 46.167969 239.128906 46.167969 239.410156 C 46.167969 239.691406 46.113281 239.960938 46.007812 240.21875 C 45.898438 240.480469 45.746094 240.707031 45.546875 240.90625 C 45.351562 241.105469 45.121094 241.257812 44.863281 241.363281 C 44.601562 241.472656 44.332031 241.527344 44.050781 241.527344 C 43.769531 241.527344 43.5 241.472656 43.242188 241.363281 C 42.980469 241.257812 42.753906 241.105469 42.554688 240.90625 C 42.355469 240.707031 42.203125 240.480469 42.097656 240.21875 C 41.988281 239.960938 41.933594 239.691406 41.933594 239.410156 C 41.933594 239.128906 41.988281 238.859375 42.097656 238.597656 C 42.203125 238.339844 42.355469 238.109375 42.554688 237.914062 C 42.753906 237.714844 42.980469 237.5625 43.242188 237.453125 C 43.5 237.347656 43.769531 237.292969 44.050781 237.292969 C 44.332031 237.292969 44.601562 237.347656 44.863281 237.453125 C 45.121094 237.5625 45.351562 237.714844 45.546875 237.914062 Z M 45.546875 237.914062 " fill-opacity="1" fill-rule="nonzero"/></g><path fill="#c5979d" d="M 63.304688 270.746094 C 63.503906 270.941406 63.65625 271.171875 63.765625 271.429688 C 63.871094 271.691406 63.925781 271.960938 63.925781 272.242188 C 63.925781 272.523438 63.871094 272.792969 63.765625 273.050781 C 63.65625 273.3125 63.503906 273.539062 63.304688 273.738281 C 63.105469 273.9375 62.878906 274.089844 62.617188 274.199219 C 62.359375 274.304688 62.089844 274.359375 61.808594 274.359375 C 61.527344 274.359375 61.257812 274.304688 61 274.199219 C 60.738281 274.089844 60.511719 273.9375 60.3125 273.738281 C 60.113281 273.539062 59.960938 273.3125 59.851562 273.050781 C 59.746094 272.792969 59.691406 272.523438 59.691406 272.242188 C 59.691406 271.960938 59.746094 271.691406 59.851562 271.429688 C 59.960938 271.171875 60.113281 270.941406 60.3125 270.746094 C 60.511719 270.546875 60.738281 270.394531 61 270.285156 C 61.257812 270.179688 61.527344 270.125 61.808594 270.125 C 62.089844 270.125 62.359375 270.179688 62.617188 270.285156 C 62.878906 270.394531 63.105469 270.546875 63.304688 270.746094 Z M 63.304688 270.746094 " fill-opacity="1" fill-rule="nonzero"/><g clip-path="url(#e6c4a4f600)"><path fill="#c5979d" d="M 89.402344 290.410156 C 89.601562 290.609375 89.753906 290.835938 89.863281 291.097656 C 89.96875 291.355469 90.023438 291.625 90.023438 291.90625 C 90.023438 292.1875 89.96875 292.457031 89.863281 292.71875 C 89.753906 292.976562 89.601562 293.207031 89.402344 293.402344 C 89.203125 293.601562 88.976562 293.753906 88.714844 293.863281 C 88.457031 293.96875 88.1875 294.023438 87.90625 294.023438 C 87.625 294.023438 87.355469 293.96875 87.097656 293.863281 C 86.835938 293.753906 86.609375 293.601562 86.410156 293.402344 C 86.210938 293.207031 86.058594 292.976562 85.949219 292.71875 C 85.84375 292.457031 85.789062 292.1875 85.789062 291.90625 C 85.789062 291.625 85.84375 291.355469 85.949219 291.097656 C 86.058594 290.835938 86.210938 290.609375 86.410156 290.410156 C 86.609375 290.210938 86.835938 290.058594 87.097656 289.953125 C 87.355469 289.84375 87.625 289.789062 87.90625 289.789062 C 88.1875 289.789062 88.457031 289.84375 88.714844 289.953125 C 88.976562 290.058594 89.203125 290.210938 89.402344 290.410156 Z M 89.402344 290.410156 " fill-opacity="1" fill-rule="nonzero"/></g><path fill="#c5979d" d="M 110.917969 190.59375 C 111.277344 190.949219 111.550781 191.363281 111.746094 191.828125 C 111.9375 192.296875 112.035156 192.78125 112.035156 193.289062 C 112.035156 193.792969 111.9375 194.28125 111.746094 194.746094 C 111.550781 195.214844 111.277344 195.625 110.917969 195.984375 C 110.5625 196.339844 110.148438 196.617188 109.683594 196.808594 C 109.214844 197.003906 108.730469 197.101562 108.222656 197.101562 C 107.71875 197.101562 107.230469 197.003906 106.765625 196.808594 C 106.296875 196.617188 105.886719 196.339844 105.527344 195.984375 C 105.171875 195.625 104.894531 195.214844 104.703125 194.746094 C 104.507812 194.28125 104.410156 193.792969 104.410156 193.289062 C 104.410156 192.78125 104.507812 192.296875 104.703125 191.828125 C 104.894531 191.363281 105.171875 190.949219 105.527344 190.59375 C 105.886719 190.234375 106.296875 189.960938 106.765625 189.765625 C 107.230469 189.574219 107.71875 189.476562 108.222656 189.476562 C 108.730469 189.476562 109.214844 189.574219 109.683594 189.765625 C 110.148438 189.960938 110.5625 190.234375 110.917969 190.59375 Z M 110.917969 190.59375 " fill-opacity="1" fill-rule="nonzero"/><g fill="#c5979d" fill-opacity="1"><g transform="translate(234.304088, 255.70502)"><g><path d="M 43.3125 -53.578125 C 56.09375 -53.578125 62.484375 -58.613281 62.484375 -68.6875 C 62.484375 -78.582031 56.09375 -83.53125 43.3125 -83.53125 L 28.609375 -83.53125 L 28.609375 -53.578125 Z M 43.3125 -37.109375 L 28.609375 -37.109375 L 28.609375 0 L 8.765625 0 L 8.765625 -100 L 43.3125 -100 C 69.320312 -100 82.328125 -89.5625 82.328125 -68.6875 C 82.328125 -47.632812 69.320312 -37.109375 43.3125 -37.109375 Z M 43.3125 -37.109375 "/></g></g></g><g fill="#c5979d" fill-opacity="1"><g transform="translate(319.316372, 255.70502)"><g><path d="M 52.5 -55.328125 C 48.09375 -56.492188 44 -57.078125 40.21875 -57.078125 C 34.007812 -57.078125 29.0625 -52.398438 25.375 -43.046875 L 25.375 0 L 7.421875 0 L 7.421875 -72.609375 L 23.75 -72.609375 L 24.296875 -63.421875 C 25.816406 -69.546875 31.125 -72.609375 40.21875 -72.609375 C 44.800781 -72.609375 49.882812 -71.300781 55.46875 -68.6875 Z M 52.5 -55.328125 "/></g></g></g><g fill="#c5979d" fill-opacity="1"><g transform="translate(376.396064, 255.70502)"><g><path d="M 72.46875 -34.40625 C 72.46875 -24.96875 69.898438 -16.875 64.765625 -10.125 C 59.640625 -3.375 51.726562 0 41.03125 0 L 35.625 0 C 24.914062 0 16.972656 -3.375 11.796875 -10.125 C 6.628906 -16.875 4.046875 -24.96875 4.046875 -34.40625 L 4.046875 -38.0625 C 4.046875 -47.6875 6.628906 -55.867188 11.796875 -62.609375 C 16.972656 -69.359375 24.914062 -72.734375 35.625 -72.734375 L 41.03125 -72.734375 C 51.726562 -72.734375 59.640625 -69.359375 64.765625 -62.609375 C 69.898438 -55.867188 72.46875 -47.6875 72.46875 -38.0625 Z M 38.328125 -57.625 C 27.796875 -57.625 22.53125 -51.101562 22.53125 -38.0625 L 22.53125 -34.40625 C 22.53125 -21.539062 27.796875 -15.109375 38.328125 -15.109375 C 48.316406 -15.109375 53.3125 -21.539062 53.3125 -34.40625 L 53.3125 -38.0625 C 53.3125 -51.101562 48.316406 -57.625 38.328125 -57.625 Z M 38.328125 -57.625 "/></g></g></g><g fill="#c5979d" fill-opacity="1"><g transform="translate(452.907138, 255.70502)"><g><path d="M 12.828125 -0.546875 L 12.828125 -58.96875 L 1.75 -58.96875 L 1.75 -72.734375 L 12.828125 -72.734375 L 12.828125 -78.8125 C 12.828125 -95.726562 20.5625 -104.1875 36.03125 -104.1875 C 41.425781 -104.1875 46.644531 -103.101562 51.6875 -100.9375 L 48.171875 -89.609375 C 44.929688 -89.703125 41.785156 -89.75 38.734375 -89.75 C 34.234375 -89.75 31.984375 -85.96875 31.984375 -78.40625 L 31.984375 -72.734375 L 46.6875 -72.734375 L 46.6875 -58.96875 L 31.984375 -58.96875 L 31.984375 -0.546875 Z M 12.828125 -0.546875 "/></g></g></g><g fill="#c5979d" fill-opacity="1"><g transform="translate(504.589225, 255.70502)"><g><path d="M 23.484375 -43.453125 L 42.921875 -43.453125 C 46.691406 -43.453125 48.578125 -44.847656 48.578125 -47.640625 C 48.578125 -51.773438 47.765625 -54.785156 46.140625 -56.671875 C 44.523438 -58.566406 41.15625 -59.5625 36.03125 -59.65625 C 30.90625 -59.65625 27.53125 -58.035156 25.90625 -54.796875 C 24.5625 -51.828125 23.753906 -48.046875 23.484375 -43.453125 Z M 23.890625 -29.5625 C 24.242188 -26.132812 24.960938 -23.390625 26.046875 -21.328125 C 27.753906 -17.546875 32.117188 -15.65625 39.140625 -15.65625 C 45.617188 -15.65625 53.398438 -16.375 62.484375 -17.8125 L 65.859375 -6.203125 C 55.691406 -1.972656 46.648438 0.140625 38.734375 0.140625 C 25.421875 0.140625 16.332031 -3.546875 11.46875 -10.921875 C 6.613281 -18.304688 4.1875 -27.578125 4.1875 -38.734375 C 4.726562 -48.628906 7.242188 -56.925781 11.734375 -63.625 C 16.234375 -70.332031 24.15625 -73.6875 35.5 -73.6875 C 46.832031 -73.6875 54.769531 -71.1875 59.3125 -66.1875 C 63.851562 -61.195312 66.210938 -54.5625 66.390625 -46.28125 C 66.390625 -40.53125 64.953125 -36.304688 62.078125 -33.609375 C 59.203125 -30.910156 54.613281 -29.5625 48.3125 -29.5625 Z M 23.890625 -29.5625 "/></g></g></g><g fill="#c5979d" fill-opacity="1"><g transform="translate(574.758101, 255.70502)"><g><path d="M 70.578125 -80.296875 C 60.140625 -82.179688 50.289062 -83.21875 41.03125 -83.40625 C 30.144531 -83.40625 24.703125 -79.984375 24.703125 -73.140625 L 24.703125 -68.421875 C 25.054688 -64.191406 27.394531 -61.398438 31.71875 -60.046875 L 53.984375 -56 C 68.648438 -53.300781 76.023438 -44.351562 76.109375 -29.15625 L 76.109375 -24.96875 C 75.304688 -8.050781 64.015625 0.40625 42.234375 0.40625 C 31.171875 0.226562 19.070312 -1.34375 5.9375 -4.3125 L 8.234375 -19.296875 C 19.742188 -17.765625 30.8125 -16.910156 41.4375 -16.734375 C 51.0625 -16.734375 55.960938 -19.476562 56.140625 -24.96875 L 56.140625 -29.15625 C 56.140625 -35.09375 53.347656 -38.554688 47.765625 -39.546875 L 25.5 -43.59375 C 12.457031 -46.113281 5.53125 -54.34375 4.71875 -68.28125 L 4.71875 -73.140625 C 4.71875 -91.410156 16.820312 -100.546875 41.03125 -100.546875 C 49.84375 -100.453125 60.457031 -98.695312 72.875 -95.28125 Z M 70.578125 -80.296875 "/></g></g></g><g fill="#c5979d" fill-opacity="1"><g transform="translate(655.992076, 255.70502)"><g><path d="M 72.46875 -34.40625 C 72.46875 -24.96875 69.898438 -16.875 64.765625 -10.125 C 59.640625 -3.375 51.726562 0 41.03125 0 L 35.625 0 C 24.914062 0 16.972656 -3.375 11.796875 -10.125 C 6.628906 -16.875 4.046875 -24.96875 4.046875 -34.40625 L 4.046875 -38.0625 C 4.046875 -47.6875 6.628906 -55.867188 11.796875 -62.609375 C 16.972656 -69.359375 24.914062 -72.734375 35.625 -72.734375 L 41.03125 -72.734375 C 51.726562 -72.734375 59.640625 -69.359375 64.765625 -62.609375 C 69.898438 -55.867188 72.46875 -47.6875 72.46875 -38.0625 Z M 38.328125 -57.625 C 27.796875 -57.625 22.53125 -51.101562 22.53125 -38.0625 L 22.53125 -34.40625 C 22.53125 -21.539062 27.796875 -15.109375 38.328125 -15.109375 C 48.316406 -15.109375 53.3125 -21.539062 53.3125 -34.40625 L 53.3125 -38.0625 C 53.3125 -51.101562 48.316406 -57.625 38.328125 -57.625 Z M 38.328125 -57.625 "/></g></g></g><g fill="#c5979d" fill-opacity="1"><g transform="translate(732.50315, 255.70502)"><g><path d="M 52.5 -55.328125 C 48.09375 -56.492188 44 -57.078125 40.21875 -57.078125 C 34.007812 -57.078125 29.0625 -52.398438 25.375 -43.046875 L 25.375 0 L 7.421875 0 L 7.421875 -72.609375 L 23.75 -72.609375 L 24.296875 -63.421875 C 25.816406 -69.546875 31.125 -72.609375 40.21875 -72.609375 C 44.800781 -72.609375 49.882812 -71.300781 55.46875 -68.6875 Z M 52.5 -55.328125 "/></g></g></g><g fill="#c5979d" fill-opacity="1"><g transform="translate(789.582842, 255.70502)"><g><path d="M 31.703125 -91.90625 L 31.703125 -72.734375 L 47.09375 -72.734375 L 47.09375 -59.109375 L 31.703125 -59.109375 L 31.703125 -24.421875 C 31.703125 -18.304688 33.320312 -15.25 36.5625 -15.25 C 39.800781 -15.25 42.992188 -15.296875 46.140625 -15.390625 L 48.3125 -3.375 C 43.988281 -1.125 37.78125 0 29.6875 0 C 18.257812 0 12.546875 -7.242188 12.546875 -21.734375 L 12.546875 -59.109375 L 0.671875 -59.109375 L 0.671875 -72.734375 L 12.546875 -72.734375 L 12.546875 -91.90625 Z M 31.703125 -91.90625 "/></g></g></g><g fill="#eaf2f3" fill-opacity="1"><g transform="translate(244.988833, 245.227208)"><g><path d="M 34.3125 -38.421875 C 50.007812 -38.421875 57.859375 -45.269531 57.859375 -58.96875 C 57.859375 -72.507812 50.007812 -79.28125 34.3125 -79.28125 L 12.21875 -79.28125 L 12.21875 -38.421875 Z M 40.09375 -35.75 C 38.3125 -35.53125 36.382812 -35.421875 34.3125 -35.421875 L 12.21875 -35.421875 L 12.21875 0 L 9.21875 0 L 9.21875 -82.28125 L 34.3125 -82.28125 C 52.007812 -82.28125 60.859375 -74.507812 60.859375 -58.96875 C 60.859375 -46.15625 54.972656 -38.566406 43.203125 -36.203125 Z M 40.09375 -35.75 "/></g></g></g><g fill="#eaf2f3" fill-opacity="1"><g transform="translate(328.698478, 244.830957)"><g><path d="M 35.125 -51.3125 C 33.082031 -51.851562 30.773438 -52.125 28.203125 -52.125 C 19.847656 -52.050781 13.941406 -46.65625 10.484375 -35.9375 L 10.484375 -0.203125 L 7.734375 -0.203125 L 7.734375 -54.875 L 10.484375 -54.875 L 10.484375 -41.734375 C 13.941406 -50.492188 19.847656 -54.875 28.203125 -54.875 C 30.773438 -54.875 33.351562 -54.53125 35.9375 -53.84375 Z M 35.125 -51.3125 "/></g></g></g><g fill="#eaf2f3" fill-opacity="1"><g transform="translate(387.327848, 246.019441)"><g><path d="M 51.109375 -24.9375 C 51.109375 -8.3125 43.640625 0 28.703125 0 L 26.671875 0 C 11.941406 0 4.578125 -8.3125 4.578125 -24.9375 L 4.578125 -29.71875 C 4.578125 -46.488281 11.941406 -54.875 26.671875 -54.875 L 28.703125 -54.875 C 43.640625 -54.875 51.109375 -46.488281 51.109375 -29.71875 Z M 26.671875 -52.125 C 13.773438 -52.125 7.328125 -44.65625 7.328125 -29.71875 L 7.328125 -24.9375 C 7.328125 -10.144531 13.773438 -2.75 26.671875 -2.75 L 28.703125 -2.75 C 41.804688 -2.75 48.359375 -10.144531 48.359375 -24.9375 L 48.359375 -29.71875 C 48.359375 -44.65625 41.804688 -52.125 28.703125 -52.125 Z M 26.671875 -52.125 "/></g></g></g><g fill="#eaf2f3" fill-opacity="1"><g transform="translate(461.929576, 245.227208)"><g><path d="M 12.765625 -0.4375 L 12.765625 -56.859375 L 2.546875 -56.859375 L 2.546875 -59.859375 L 12.765625 -59.859375 L 12.765625 -70.40625 C 12.765625 -80.625 17.835938 -85.734375 27.984375 -85.734375 C 30.203125 -85.734375 32.941406 -85.320312 36.203125 -84.5 L 35.53125 -81.625 C 33.019531 -82.363281 30.503906 -82.734375 27.984375 -82.734375 C 19.835938 -82.734375 15.765625 -78.515625 15.765625 -70.078125 L 15.765625 -59.859375 L 31.203125 -59.859375 L 31.203125 -56.859375 L 15.765625 -56.859375 L 15.765625 -0.4375 Z M 12.765625 -0.4375 "/></g></g></g><g fill="#eaf2f3" fill-opacity="1"><g transform="translate(512.272896, 245.812379)"><g><path d="M 8.453125 -25.890625 C 9.585938 -10.484375 16.253906 -2.78125 28.453125 -2.78125 C 35.015625 -2.78125 41.1875 -3.957031 46.96875 -6.3125 L 48.25 -3.53125 C 41.832031 -1.101562 35.128906 0.109375 28.140625 0.109375 C 13.085938 0.109375 5.5625 -10.160156 5.5625 -30.703125 C 6.34375 -48.679688 13.257812 -57.671875 26.3125 -57.671875 L 29.203125 -57.671875 C 42.398438 -57.671875 49.175781 -50.535156 49.53125 -36.265625 C 49.53125 -29.347656 46.710938 -25.890625 41.078125 -25.890625 Z M 46.640625 -36.265625 C 46.640625 -48.460938 40.828125 -54.632812 29.203125 -54.78125 L 26.3125 -54.78125 C 14.40625 -54.78125 8.453125 -46.113281 8.453125 -28.78125 L 41.078125 -28.78125 C 44.785156 -28.78125 46.640625 -31.273438 46.640625 -36.265625 Z M 46.640625 -36.265625 "/></g></g></g><g fill="#eaf2f3" fill-opacity="1"><g transform="translate(583.582699, 246.13926)"><g><path d="M 55.484375 -78.5625 C 48.429688 -80.15625 40.773438 -81.03125 32.515625 -81.1875 C 15.921875 -81.1875 7.625 -74.929688 7.625 -62.421875 L 7.625 -58.21875 C 8 -51.164062 12.617188 -46.84375 21.484375 -45.25 L 42.0625 -41.609375 C 53.507812 -39.492188 59.273438 -33.546875 59.359375 -23.765625 L 59.359375 -20.125 C 58.671875 -6.78125 50.066406 -0.109375 33.546875 -0.109375 C 23.992188 -0.265625 14.742188 -1.097656 5.796875 -2.609375 L 6.375 -5.796875 C 14.632812 -4.203125 23.425781 -3.332031 32.75 -3.1875 C 48.207031 -3.1875 56.050781 -8.832031 56.28125 -20.125 L 56.28125 -23.765625 C 56.28125 -31.722656 51.164062 -36.6875 40.9375 -38.65625 L 20.578125 -42.296875 C 10.492188 -44.191406 5.148438 -49.5 4.546875 -58.21875 L 4.546875 -62.421875 C 4.546875 -76.972656 13.832031 -84.25 32.40625 -84.25 C 39.988281 -84.175781 47.945312 -83.226562 56.28125 -81.40625 Z M 55.484375 -78.5625 "/></g></g></g><g fill="#eaf2f3" fill-opacity="1"><g transform="translate(665.709636, 246.019441)"><g><path d="M 51.109375 -24.9375 C 51.109375 -8.3125 43.640625 0 28.703125 0 L 26.671875 0 C 11.941406 0 4.578125 -8.3125 4.578125 -24.9375 L 4.578125 -29.71875 C 4.578125 -46.488281 11.941406 -54.875 26.671875 -54.875 L 28.703125 -54.875 C 43.640625 -54.875 51.109375 -46.488281 51.109375 -29.71875 Z M 26.671875 -52.125 C 13.773438 -52.125 7.328125 -44.65625 7.328125 -29.71875 L 7.328125 -24.9375 C 7.328125 -10.144531 13.773438 -2.75 26.671875 -2.75 L 28.703125 -2.75 C 41.804688 -2.75 48.359375 -10.144531 48.359375 -24.9375 L 48.359375 -29.71875 C 48.359375 -44.65625 41.804688 -52.125 28.703125 -52.125 Z M 26.671875 -52.125 "/></g></g></g><g fill="#eaf2f3" fill-opacity="1"><g transform="translate(743.259558, 244.033672)"><g><path d="M 35.125 -51.3125 C 33.082031 -51.851562 30.773438 -52.125 28.203125 -52.125 C 19.847656 -52.050781 13.941406 -46.65625 10.484375 -35.9375 L 10.484375 -0.203125 L 7.734375 -0.203125 L 7.734375 -54.875 L 10.484375 -54.875 L 10.484375 -41.734375 C 13.941406 -50.492188 19.847656 -54.875 28.203125 -54.875 C 30.773438 -54.875 33.351562 -54.53125 35.9375 -53.84375 Z M 35.125 -51.3125 "/></g></g></g><g fill="#eaf2f3" fill-opacity="1"><g transform="translate(798.909794, 245.190115)"><g><path d="M 14.8125 -69.1875 L 14.8125 -55.078125 L 30.140625 -55.078125 L 30.140625 -52.3125 L 14.8125 -52.3125 L 14.8125 -14.71875 C 14.882812 -7.019531 17.75 -3.171875 23.40625 -3.171875 C 24.96875 -3.171875 27.078125 -3.546875 29.734375 -4.296875 L 30.453125 -1.734375 C 27.523438 -0.847656 25.140625 -0.40625 23.296875 -0.40625 C 15.804688 -0.40625 12.0625 -5.175781 12.0625 -14.71875 L 12.0625 -52.3125 L 0.8125 -52.3125 L 0.8125 -55.078125 L 12.0625 -55.078125 L 12.0625 -69.1875 Z M 14.8125 -69.1875 "/></g></g></g></svg>